<svg xmlns="http://www.w3.org/2000/svg" width="28.99" height="30.697" viewBox="0 0 28.99 30.697">
  <g id="Safe" transform="translate(0.568 0.401)">
    <path id="Path_119462" data-name="Path 119462" d="M23.067,18.785c3.9,0,7.067-4.161,7.067-9.276v-5.3a.442.442,0,0,0-.328-.427L23.181,2.015a.442.442,0,0,0-.228,0L16.328,3.782A.442.442,0,0,0,16,4.209v5.3C16,14.624,19.171,18.785,23.067,18.785ZM16.883,4.548,23.067,2.9l6.184,1.649V9.509c0,4.628-2.774,8.393-6.184,8.393s-6.184-3.765-6.184-8.393Z" transform="translate(-3.314 -2)" fill="#fff" stroke="#fff" stroke-width="0.8"/>
    <path id="Path_119463" data-name="Path 119463" d="M25.209,17.742v1.325a.883.883,0,0,0,.883.883h1.767a.883.883,0,0,0,.883-.883V17.742h1.325a.883.883,0,0,0,.883-.883V15.092a.883.883,0,0,0-.883-.883H28.742V12.883A.883.883,0,0,0,27.859,12H26.092a.883.883,0,0,0-.883.883v1.325H23.883a.883.883,0,0,0-.883.883v1.767a.883.883,0,0,0,.883.883Zm-1.325-2.65h1.325a.883.883,0,0,0,.883-.883V12.883h1.767v1.325a.883.883,0,0,0,.883.883h1.325v1.767H28.742a.883.883,0,0,0-.883.883v1.325H26.092V17.742a.883.883,0,0,0-.883-.883H23.883Z" transform="translate(-7.222 -7.583)" fill="#fff" stroke="#fff" stroke-width="0.8"/>
    <g id="Group_44999" data-name="Group 44999" transform="translate(0 16.728)">
      <g id="Group_44975" data-name="Group 44975">
        <path id="Path_119472" data-name="Path 119472" d="M27.656,240.687c-1.885-1.279-3.292.486-8.976,5.1H13.436a.433.433,0,0,1-.433-.433c0-.408.178-.567.433-.567h3.241a2.187,2.187,0,0,0,2.343-2,2.134,2.134,0,0,0-2.343-2c-2.031,0-3.494.145-4.438-.36a5.934,5.934,0,0,0-2.707-.641,5.779,5.779,0,0,0-4.146,1.7L0,246.791l6,6,2-2H18.131a4.118,4.118,0,0,0,2.735-1.039l6.859-7.694A.877.877,0,0,0,27.656,240.687Zm-7.5,8.351a3.114,3.114,0,0,1-2.029.751H7.588L6,251.376,1.42,246.795l4.682-4.61a4.8,4.8,0,0,1,3.43-1.4,4.96,4.96,0,0,1,2.235.521c1.123.6,2.32.478,4.91.478.013,0,1.342.011,1.342,1,0,.682-.8,1-1.342,1H13.436a1.5,1.5,0,0,0,0,3h5.6c5.975-4.854,6.767-5.925,7.911-5.362Z" transform="translate(0 -239.789)" fill="#fff" stroke="#fff" stroke-width="0.8"/>
      </g>
    </g>
  </g>
</svg>
