<svg xmlns="http://www.w3.org/2000/svg" width="25.004" height="25.001" viewBox="0 0 25.004 25.001">
  <path id="Union_1" data-name="Union 1" d="M-15103.611,1711.109c-.092-.072-.179-.144-.27-.228a10.383,10.383,0,0,1-1.156-1.153c-.11-.129-.22-.254-.315-.375l0-.008a11.958,11.958,0,0,1-2.563-6.142,11.966,11.966,0,0,1,1.1-6.56,11.956,11.956,0,0,1,4.429-4.959,11.964,11.964,0,0,1,6.385-1.843h.03a11.953,11.953,0,0,1,7.478,2.639c.133.106.258.212.379.318a10.092,10.092,0,0,1,1.156,1.156l.231.269a11.966,11.966,0,0,1,2.715,8.205,11.96,11.96,0,0,1-3.5,7.9,11.966,11.966,0,0,1-7.9,3.5c-.2.008-.391.015-.588.015A11.952,11.952,0,0,1-15103.611,1711.109Zm.011-1.134.781.61a11.113,11.113,0,0,0,6.817,2.351h.012a11.076,11.076,0,0,0,5.869-1.68,11.07,11.07,0,0,0,4.091-4.542,11.066,11.066,0,0,0,1.065-6.021,11.043,11.043,0,0,0-2.29-5.669l-.61-.785-4.521,4.521,3.648,6.323a1.735,1.735,0,0,1,0,1.767,1.74,1.74,0,0,1-1.527.883h-11.095Zm6.833-19.2a11.082,11.082,0,0,0-7.079,3.219,11.089,11.089,0,0,0-3.223,7.079,11.077,11.077,0,0,0,2.222,7.454l.61.808,1.758-1.757a1.731,1.731,0,0,1-.783-.722,1.735,1.735,0,0,1,0-1.767l5.732-9.934a1.759,1.759,0,0,1,1.528-.883,1.76,1.76,0,0,1,1.532.883l1.615,2.8,4.349-4.347-.808-.61a11.087,11.087,0,0,0-6.688-2.248Q-15096.384,1690.744-15096.768,1690.77Zm6.5,16.084a.884.884,0,0,0,.77-.444.884.884,0,0,0,0-.887l-3.534-6.12-2.533,2.533v1.115h-.875v-.239l-4.042,4.042Zm-6.5-11.265-5.737,9.934a.884.884,0,0,0,0,.887.884.884,0,0,0,.744.443l5.323-5.321v-2.876h.875v2l2.065-2.064-1.735-3a.884.884,0,0,0-.77-.444A.877.877,0,0,0-15096.768,1695.589Zm.182,8.929a.585.585,0,0,1,.584-.588.588.588,0,0,1,.588.588.588.588,0,0,1-.588.584A.584.584,0,0,1-15096.586,1704.519Z" transform="translate(15108.505 -1689.341)" fill="#9242d6" stroke="rgba(0,0,0,0)" stroke-miterlimit="10" stroke-width="1"/>
</svg>
