<svg xmlns="http://www.w3.org/2000/svg" width="29.069" height="25.663" viewBox="0 0 29.069 25.663">
  <g id="_9ni713.tif" data-name="9ni713.tif" transform="translate(-143.7 -114.673)">
    <g id="Group_47892" data-name="Group 47892" transform="translate(144 114.973)">
      <path id="Path_119622" data-name="Path 119622" d="M144,166.517a.862.862,0,0,1,.863-.862q3.258,0,6.516,0a1.042,1.042,0,0,0,.461-.156q3.966-2.167,7.93-4.338a1.07,1.07,0,0,1,.471-.118c.293-.007.586-.008.883-.008a.863.863,0,0,1,.862.863v5a3.824,3.824,0,0,1,2.874,1.668,3.7,3.7,0,0,1,.616,2.353c-.143,1.972-1.285,3.145-3.472,3.578v5a.869.869,0,0,1-.781.858h-.008a3.707,3.707,0,0,1-2.335-.592c-2.313-1.315-4.662-2.566-6.988-3.857a1.479,1.479,0,0,0-.96-.154V181.6a.862.862,0,0,1-.862.862h-3.524a.862.862,0,0,1-.862-.862v-5.865h-.82a.862.862,0,0,1-.863-.863Zm16.31-3.543a.122.122,0,0,0-.178-.108h0q-3.682,2.018-7.366,4.033c-.166.091-.175.21-.174.363q0,3.439,0,6.877a.358.358,0,0,0,.221.364q3.613,1.971,7.22,3.953c.035.019.071.037.108.055a.122.122,0,0,0,.175-.109Zm-9.418,11.049v-6.675H145.81a.122.122,0,0,0-.122.122V173.9a.122.122,0,0,0,.122.122Zm-3.523,1.719v5.045h1.858v-5.063h-1.685C147.488,175.724,147.434,175.735,147.368,175.742ZM162,172.774a2.071,2.071,0,0,0,1.816-2.192A2.028,2.028,0,0,0,162,168.62Z" transform="translate(-144 -158.466)" fill="#9242d6" stroke="#f3ebfa" stroke-width="0.6"/>
      <path id="Path_119623" data-name="Path 119623" d="M555.551,309.119l-.643.912c-.048.069-.1.139-.147.215a.122.122,0,0,1-.168.034c-.317-.208-.627-.407-.928-.618a.272.272,0,0,0-.368,0c-.426.3-.867.573-1.294.868a.291.291,0,0,1-.391.011c-.609-.418-1.227-.821-1.857-1.238a.122.122,0,0,1-.034-.169l.792-1.192a.122.122,0,0,1,.169-.034c.3.2.6.384.878.591a.335.335,0,0,0,.462.007c.423-.3.857-.588,1.3-.862a.351.351,0,0,1,.309,0c.631.408,1.253.829,1.877,1.248Z" transform="translate(-527.099 -296.871)" fill="#9242d6" stroke="#f3ebfa" stroke-width="0.6"/>
      <path id="Path_119624" data-name="Path 119624" d="M538.959,115.088c.026.47.051.935.077,1.422a.122.122,0,0,1-.113.128c-.344.025-.673.056-1,.059a.361.361,0,0,0-.415.294c-.141.479-.316.949-.491,1.417-.032.085-.13.2-.206.205-.755.058-1.511.1-2.294.145a.122.122,0,0,1-.129-.114l-.088-1.426a.122.122,0,0,1,.114-.129c.372-.023.728-.05,1.085-.06a.292.292,0,0,0,.314-.239q.241-.754.52-1.5a.329.329,0,0,1,.217-.19c.758-.055,1.518-.091,2.278-.131h.022A.121.121,0,0,1,538.959,115.088Z" transform="translate(-512.555 -114.973)" fill="#9242d6" stroke="#f3ebfa" stroke-width="0.6"/>
      <path id="Path_119625" data-name="Path 119625" d="M535,485.906a.122.122,0,0,1,.155.075c.129.368.254.706.36,1.049a.269.269,0,0,0,.3.216q.806.032,1.61.1a.3.3,0,0,1,.215.152c.257.714.5,1.434.744,2.153a.177.177,0,0,1,.006.026.122.122,0,0,1-.08.136l-1.346.466a.122.122,0,0,1-.155-.074c-.124-.35-.251-.691-.358-1.037a.275.275,0,0,0-.29-.229c-.51-.021-1.018-.061-1.528-.079a.3.3,0,0,1-.34-.238c-.225-.693-.469-1.38-.716-2.093a.122.122,0,0,1,.075-.155Z" transform="translate(-511.862 -465.235)" fill="#9242d6" stroke="#f3ebfa" stroke-width="0.6"/>
    </g>
  </g>
</svg>
