<svg xmlns="http://www.w3.org/2000/svg" width="24.1" height="24.1" viewBox="0 0 24.1 24.1">
  <g id="_6raQSu.tif" data-name="6raQSu.tif" transform="translate(-719.95 -56.95)">
    <g id="Group_47894" data-name="Group 47894" transform="translate(720 57)">
      <path id="Path_119633" data-name="Path 119633" d="M732.75,81h-1.5a.911.911,0,0,0-.155-.038,10.717,10.717,0,0,1-2.969-.613,11.831,11.831,0,0,1-7.937-9.259c-.091-.441-.128-.893-.19-1.34v-1.5a1.846,1.846,0,0,0,.041-.2,11.993,11.993,0,0,1,9.939-10.868c.421-.073.847-.12,1.27-.178h1.5c.4.052.8.092,1.2.159a12.035,12.035,0,0,1,9.863,9.775c.078.436.124.877.185,1.316V69.7c-.013.075-.029.15-.04.226-.065.471-.107.947-.2,1.413a11.976,11.976,0,0,1-9.7,9.474C733.63,80.89,733.189,80.939,732.75,81Zm4.662-16.772c.136.044.29.1.446.142a1.239,1.239,0,0,1,.907.892.254.254,0,0,0,.194.128c.328.013.656,0,.984.005a1.609,1.609,0,0,1,1.659,1.658q.009,1.547,0,3.093a1.607,1.607,0,0,1-1.66,1.656q-.633.007-1.265,0a.242.242,0,0,0-.256.146,3.174,3.174,0,0,1-1.461,1.4q-1.624.807-3.246,1.619a3.641,3.641,0,0,1-3.44-.006c-.753-.378-1.509-.749-2.258-1.134a.242.242,0,0,0-.338.057q-1.567,1.581-3.146,3.151c-.048.048-.09.1-.16.18a10.907,10.907,0,0,0,10.553,2.568,10.706,10.706,0,0,0,8.1-8.926,10.86,10.86,0,0,0-2.785-9.457Zm2.2-3.395a10.9,10.9,0,0,0-10.322-2.686,11.213,11.213,0,0,0-5.54,18.438l3.252-3.253a3.273,3.273,0,0,1-1.47-1.446c-.025-.048-.127-.076-.194-.077-.429-.007-.859,0-1.289-.006a1.61,1.61,0,0,1-1.656-1.661q-.007-1.547,0-3.093A1.6,1.6,0,0,1,724.06,65.4c.328,0,.656.005.984-.006.065,0,.172-.059.186-.11a1.293,1.293,0,0,1,.983-.932q2.65-.813,5.291-1.652a1.6,1.6,0,0,1,1.008,0c1.256.4,2.516.785,3.771,1.186a.307.307,0,0,0,.363-.094c.73-.739,1.466-1.472,2.2-2.206C739.1,61.333,739.359,61.084,739.615,60.833ZM728.41,73.142c.845.418,1.635.826,2.44,1.2a2.581,2.581,0,0,0,2.268.014q1.85-.877,3.663-1.83a2.185,2.185,0,0,0,1.209-1.984c.027-1.648.008-3.3.01-4.945a.423.423,0,0,0-.335-.447,3.345,3.345,0,0,1-.532-.175.544.544,0,0,0-.741.187c-.258.3-.558.568-.839.851-.047.047-.087.1-.144.166.059.008.089.013.119.015.312.025.469.164.465.412s-.168.385-.481.388c-.258,0-.516-.01-.773.006a.5.5,0,0,0-.284.117c-.247.227-.479.47-.716.709-.111.111-.218.226-.36.374.745,0,1.432,0,2.118,0,.323,0,.5.141.5.4s-.174.4-.5.4c-.812,0-1.625.02-2.437-.008a.963.963,0,0,0-.851.355c-.244.287-.531.538-.851.856h4.005a2.091,2.091,0,0,1,.3.013.373.373,0,0,1,.326.393c0,.253-.18.395-.5.4q-1.957,0-3.914,0a2.771,2.771,0,0,0-1,.036c-.288.119-.491.443-.73.678C729.376,72.184,728.906,72.651,728.41,73.142Zm7.409-8.541a.4.4,0,0,0-.073-.048c-1.19-.374-2.379-.75-3.571-1.115a.658.658,0,0,0-.365.008q-2.725.842-5.446,1.7c-.293.092-.364.2-.364.516,0,1.554,0,3.108,0,4.662a2.432,2.432,0,0,0,1.514,2.372.206.206,0,0,0,.28-.05c.492-.5.992-1,1.488-1.494A1.464,1.464,0,0,0,729.39,71c-.325,0-.612,0-.9,0-.315,0-.49-.158-.483-.416s.172-.381.486-.383c.515,0,1.031.007,1.546-.007a.536.536,0,0,0,.323-.134c.314-.293.612-.6.915-.907A1.9,1.9,0,0,0,731.4,69h-.293c-.882,0-1.765,0-2.647,0-.31,0-.488-.192-.449-.464.031-.215.19-.334.462-.334.922,0,1.843,0,2.764,0a2.673,2.673,0,0,0,.973-.032c.288-.121.492-.441.732-.676.151-.149.3-.3.5-.5h-3.888c-.39,0-.781,0-1.171-.008a.367.367,0,0,1-.368-.353.384.384,0,0,1,.317-.426,1.279,1.279,0,0,1,.256-.015c1.8,0,3.592,0,5.388,0a.561.561,0,0,0,.451-.181c.405-.423.825-.831,1.239-1.245C735.713,64.72,735.762,64.663,735.819,64.6Zm-10.607,1.6c-.452,0-.858-.017-1.261,0a.777.777,0,0,0-.751.806q-.014,1.592,0,3.184a.73.73,0,0,0,.618.771c.468.042.943.01,1.394.01Zm13.574,4.792c.431,0,.876.026,1.317-.007a.75.75,0,0,0,.7-.778c.011-1.068.009-2.137,0-3.205a.712.712,0,0,0-.555-.748,13.926,13.926,0,0,0-1.459-.013Z" transform="translate(-720 -57)" fill="#9242d6" stroke="#9242d6" stroke-width="0.1"/>
    </g>
  </g>
</svg>
