<svg xmlns="http://www.w3.org/2000/svg" width="30.82" height="24.304" viewBox="0 0 30.82 24.304">
  <g id="esUgcp.tif" transform="translate(541.15 456.332)">
    <g id="Group_47896" data-name="Group 47896" transform="translate(-541 -456.182)">
      <path id="Path_119634" data-name="Path 119634" d="M-506.427-356.637a2.256,2.256,0,0,1-.971,1.156c-.437.292-.853.617-1.277.928a1.543,1.543,0,0,1-2.111.039c-.878.829-1.766,1.665-2.649,2.507a.333.333,0,0,0-.082.209,1.2,1.2,0,0,1-.933,1.158,1.3,1.3,0,0,1,.25,1.857c-.381.523-.917.609-1.724.318a3.261,3.261,0,0,1-.006.619,1.359,1.359,0,0,1-2.065.895c-.286-.176-.554-.382-.862-.6-.008.09-.018.152-.018.213a1.306,1.306,0,0,1-.719,1.216,1.323,1.323,0,0,1-1.414-.058c-.426-.273-.841-.564-1.261-.847-.081-.054-.164-.1-.258-.162-.115.169-.218.324-.325.477a1.325,1.325,0,0,1-1.416.6,1.291,1.291,0,0,1-1.021-1.112c-.012-.067-.028-.133-.043-.2a1.4,1.4,0,0,1-1.847-1.057,1.338,1.338,0,0,1-1.509,0,1.366,1.366,0,0,1-.564-1.422c-.1,0-.181,0-.258,0a1.256,1.256,0,0,1-1.2-.688,1.27,1.27,0,0,1,.068-1.382c.19-.29.389-.575.594-.877l-2.4-2.421a6.547,6.547,0,0,1-.822.263,1.283,1.283,0,0,1-1.033-.284c-.62-.481-1.241-.96-1.845-1.461a1.42,1.42,0,0,1-.235-2q2.007-2.591,4.045-5.157a1.422,1.422,0,0,1,2.046-.244c.617.468,1.224.95,1.826,1.437a1.431,1.431,0,0,1,.495,1.5.374.374,0,0,0,.038.289,4.838,4.838,0,0,0,2.444,1.509c.039.007.077.018.115.029a.954.954,0,0,0,1.089-.332,3.047,3.047,0,0,1,2.716-.9,16.534,16.534,0,0,1,4.478.905,2.188,2.188,0,0,0,2.244-.374,3.2,3.2,0,0,1-.157-.41,1.41,1.41,0,0,1,.551-1.555q.914-.692,1.854-1.35a1.443,1.443,0,0,1,2.055.344q1.9,2.595,3.789,5.2a4.643,4.643,0,0,1,.326.627ZM-527.253-353c.727-.543,1.253-.636,1.776-.276a1.345,1.345,0,0,1,.45,1.818,1.315,1.315,0,0,1,1.4.79,1.479,1.479,0,0,1-.32,1.583c1.018.079,1.347.383,1.533,1.368a.281.281,0,0,0,.095.169c.541.369,1.071.76,1.637,1.086a.952.952,0,0,0,1.4-.687.959.959,0,0,0-.427-1.008c-.907-.66-1.818-1.316-2.723-1.979-.126-.092-.353-.173-.207-.383.161-.231.313-.02.449.07.207.136.405.286.607.431q1.852,1.327,3.706,2.653a.968.968,0,0,0,1.524-.421.973.973,0,0,0-.409-1.169c-.667-.467-1.34-.925-2.01-1.387-.507-.35-1.018-.694-1.513-1.058-.075-.055-.08-.208-.117-.315a2,2,0,0,1,.338-.007c.062.008.117.071.175.109l2.635,1.739c.505.333,1.008.671,1.518,1a.88.88,0,0,0,1.055,0,.881.881,0,0,0-.106-1.476q-2.15-1.42-4.306-2.829c-.125-.082-.284-.169-.167-.347s.262-.074.39.005q.821.512,1.641,1.027,1.06.664,2.121,1.326a.738.738,0,0,0,.867-.012.648.648,0,0,0,.3-.749,1.238,1.238,0,0,0-.43-.568c-1.675-1.191-3.363-2.363-5.047-3.541-.659-.461-1.316-.925-1.978-1.381-.425-.293-.682-.241-.971.177-.254.368-.505.737-.759,1.1a2.233,2.233,0,0,1-3.067.806.906.906,0,0,1-.382-1.523c.5-.681,1.005-1.352,1.476-1.983a12.429,12.429,0,0,1-1.681-.658,13.212,13.212,0,0,1-1.491-1.115l-3.885,4.937,2.367,2.446A1.363,1.363,0,0,1-527.253-353Zm12.646-6.766a2.8,2.8,0,0,1-2.944.333,14.23,14.23,0,0,0-4.555-.794,2.157,2.157,0,0,0-1.74.637c-.884,1-1.7,2.067-2.529,3.118a.439.439,0,0,0,.14.652,1.867,1.867,0,0,0,2.686-.455c.293-.425.584-.851.88-1.274a.946.946,0,0,1,1.462-.249c.862.6,1.735,1.191,2.584,1.813a2.167,2.167,0,0,0,2.169.256c.307-.113.6-.258.914-.355.1-.031.234.046.352.074-.063.1-.1.241-.192.277a5.027,5.027,0,0,1-2.018.588l3.809,2.683,2.573-2.384Zm7.829,2.8a4,4,0,0,0-.3-.659c-.423-.613-.871-1.208-1.31-1.809-.813-1.115-1.622-2.233-2.441-3.344a1.041,1.041,0,0,0-1.51-.314q-.964.674-1.9,1.385a1.015,1.015,0,0,0-.216,1.435q1.919,2.655,3.859,5.3a1.028,1.028,0,0,0,1.478.229c.625-.44,1.24-.895,1.855-1.348A1.256,1.256,0,0,0-506.777-356.962Zm-21.531-4.512a1.2,1.2,0,0,0-.444-.964c-.586-.46-1.164-.928-1.755-1.382a1.039,1.039,0,0,0-1.509.176q-2.016,2.544-4.016,5.1a1.037,1.037,0,0,0,.189,1.529q.871.7,1.758,1.378a1.032,1.032,0,0,0,1.508-.169q2.017-2.543,4.01-5.105A2.3,2.3,0,0,0-528.309-361.474Zm3.1,9.312a1.032,1.032,0,0,0-.661-.884.92.92,0,0,0-1.054.355q-.893,1.283-1.767,2.579a.921.921,0,0,0,.23,1.312.92.92,0,0,0,1.3-.293c.576-.832,1.15-1.666,1.711-2.509A3.269,3.269,0,0,0-525.209-352.163Zm1.34,2.044a1.028,1.028,0,0,0-.657-.9.913.913,0,0,0-1.052.348c-.339.476-.667.959-.991,1.445a.917.917,0,0,0,.214,1.311.919.919,0,0,0,1.3-.266c.332-.469.657-.942.968-1.424A3.04,3.04,0,0,0-523.87-350.119Zm-5.666-.183a.847.847,0,0,0,.718-.356c.365-.518.729-1.037,1.067-1.572a.9.9,0,0,0-.255-1.215.912.912,0,0,0-1.251.187c-.38.519-.753,1.046-1.086,1.595A.9.9,0,0,0-529.536-350.3Zm5.544,3.811c.511.012.843-.313,1.108-.963a.894.894,0,0,0-.916-1.211c-.471.018-.834.421-1.048,1.007A.886.886,0,0,0-523.992-346.49Z" transform="translate(536.947 369.941)" fill="#9242d6" stroke="#9242d6" stroke-width="0.3"/>
      <path id="Path_119635" data-name="Path 119635" d="M-541-330.947l1.687-2.1a1.947,1.947,0,0,1,.266-.317.268.268,0,0,1,.251-.03c.053.043.055.168.05.256,0,.049-.064.1-.1.143-.562.717-1.129,1.43-1.685,2.152-.133.173-.265.255-.469.136Z" transform="translate(541 340.734)" fill="#9242d6" stroke="#9242d6" stroke-width="0.3"/>
      <path id="Path_119636" data-name="Path 119636" d="M-338.27-449.169a3.523,3.523,0,0,1-3.489-3.556,3.514,3.514,0,0,1,3.554-3.457,3.5,3.5,0,0,1,3.469,3.505A3.515,3.515,0,0,1-338.27-449.169Zm3.128-3.512a3.1,3.1,0,0,0-3.1-3.11,3.125,3.125,0,0,0-3.115,3.1,3.121,3.121,0,0,0,3.12,3.125A3.107,3.107,0,0,0-335.142-452.681Z" transform="translate(353.635 456.182)" fill="#9242d6" stroke="#9242d6" stroke-width="0.3"/>
      <path id="Path_119637" data-name="Path 119637" d="M-124.709-371.109c-.043.053-.079.139-.127.147a.312.312,0,0,1-.237-.049,2.317,2.317,0,0,1-.273-.352,2.415,2.415,0,0,0-2.249-1.083c-.107.006-.3-.077-.316-.153-.055-.207.139-.23.286-.242a2.707,2.707,0,0,1,2.327.9,7.43,7.43,0,0,1,.488.639A1.483,1.483,0,0,1-124.709-371.109Z" transform="translate(152.545 377.821)" fill="#9242d6" stroke="#9242d6" stroke-width="0.3"/>
      <path id="Path_119638" data-name="Path 119638" d="M-497-354.953c-.182.2-.351.4-.537.581-.026.026-.153-.016-.2-.06a.19.19,0,0,1-.027-.183,4.317,4.317,0,0,1,.4-.508.246.246,0,0,1,.212-.019C-497.1-355.125-497.067-355.045-497-354.953Z" transform="translate(500.353 361.179)" fill="#9242d6" stroke="#9242d6" stroke-width="0.3"/>
      <path id="Path_119639" data-name="Path 119639" d="M-69.781-332.127a.857.857,0,0,1,.145.122,1.636,1.636,0,0,1,.257.361.8.8,0,0,1,0,.312c-.1-.023-.232-.015-.3-.076a1.772,1.772,0,0,1-.3-.4C-70.075-331.977-69.993-332.132-69.781-332.127Z" transform="translate(98.094 339.522)" fill="#9242d6" stroke="#9242d6" stroke-width="0.3"/>
      <path id="Path_119640" data-name="Path 119640" d="M-314.008-429.45c.328.321.626.611.922.9.347.344.392.694.125.956s-.595.217-.956-.146c-.287-.288-.576-.574-.9-.893l-.538.536c-.169.168-.33.345-.507.5a.571.571,0,0,1-.806-.008.551.551,0,0,1,0-.8c.257-.276.527-.54.8-.8a2.213,2.213,0,0,1,.3-.2c-.393-.387-.737-.689-1.033-1.033a.858.858,0,0,1-.215-.576.558.558,0,0,1,.962-.292c.286.26.55.545.824.818.069.069.142.134.235.22.325-.33.635-.65.951-.964a.587.587,0,0,1,.889-.082.6.6,0,0,1-.07.892C-313.337-430.1-313.659-429.793-314.008-429.45Zm.838,1.446a2.152,2.152,0,0,0-.161-.21c-.32-.326-.634-.657-.968-.968-.213-.2-.2-.348.008-.539q.5-.467.965-.971c.068-.073.06-.216.087-.327-.11.027-.251.019-.324.086q-.513.475-.992.986c-.19.2-.333.186-.516-.007-.32-.339-.652-.668-.995-.983-.07-.064-.212-.05-.321-.071.025.1.018.233.08.3.325.348.663.684,1.006,1.014.186.179.179.322-.006.5-.338.321-.669.651-.986.992-.068.073-.063.213-.091.323.109-.023.251-.01.322-.075.329-.3.637-.626.953-.941.281-.28.318-.281.6,0,.331.329.657.662.994.984a.353.353,0,0,0,.232.063C-313.251-427.856-313.218-427.938-313.17-428Z" transform="translate(330.2 432.952)" fill="#9242d6" stroke="#f3ebfa" stroke-width="0.2"/>
      <path id="Path_119641" data-name="Path 119641" d="M14.837,3.4l-1.011-.988-.283-.484.13-.128.33-.15.724.638.627.605L16.564,1.8l.422-.15.189.076v.562l-.686.669-.54.54,1.226,1.241v.344l-.189.163h-.2l-.459-.268L15.5,4.151l-.146-.076L14,5.25h-.33l-.13-.268.283-.6Z" transform="translate(0 0)" fill="#9242d6"/>
    </g>
  </g>
</svg>
