<svg xmlns="http://www.w3.org/2000/svg" width="28.99" height="29.375" viewBox="0 0 28.99 29.375">
  <g id="seeding-2" transform="translate(0.568 0.845)">
    <g id="Group_44976" data-name="Group 44976" transform="translate(0 14.962)">
      <g id="Group_44975" data-name="Group 44975">
        <path id="Path_119472" data-name="Path 119472" d="M27.656,240.687c-1.885-1.279-3.292.486-8.976,5.1H13.436a.433.433,0,0,1-.433-.433c0-.408.178-.567.433-.567h3.241a2.187,2.187,0,0,0,2.343-2,2.134,2.134,0,0,0-2.343-2c-2.031,0-3.494.145-4.438-.36a5.934,5.934,0,0,0-2.707-.641,5.779,5.779,0,0,0-4.146,1.7L0,246.791l6,6,2-2H18.131a4.118,4.118,0,0,0,2.735-1.039l6.859-7.694A.877.877,0,0,0,27.656,240.687Zm-7.5,8.351a3.114,3.114,0,0,1-2.029.751H7.588L6,251.376,1.42,246.795l4.682-4.61a4.8,4.8,0,0,1,3.43-1.4,4.96,4.96,0,0,1,2.235.521c1.123.6,2.32.478,4.91.478.013,0,1.342.011,1.342,1,0,.682-.8,1-1.342,1H13.436a1.5,1.5,0,0,0,0,3h5.6c5.975-4.854,6.767-5.925,7.911-5.362Z" transform="translate(0 -239.789)" fill="#fff" stroke="#fff" stroke-width="0.8"/>
      </g>
    </g>
    <g id="Group_44978" data-name="Group 44978" transform="translate(13.465 0)">
      <g id="Group_44977" data-name="Group 44977">
        <path id="Path_119473" data-name="Path 119473" d="M222.17,8.469a2.678,2.678,0,0,0-2.2,1.225,2.818,2.818,0,0,0-.408,2.048,6.061,6.061,0,0,0-.927.906,38.4,38.4,0,0,1,.392-4.469,3.536,3.536,0,0,0,2.854-2.1c1.175-2.1.63-4.259.455-5.619-.918.894-4.928-.154-6.519,2.571a3.5,3.5,0,0,0,.241,3.74,4.679,4.679,0,0,0,1.49,1.111,42.824,42.824,0,0,0-.5,6.361,1,1,0,0,0,.991,1.022h.013a1.008,1.008,0,0,0,.913-.64,4.529,4.529,0,0,1,1.257-1.707,2.611,2.611,0,0,0,1.941.9,3.283,3.283,0,0,0,2.762-1.857,8.6,8.6,0,0,1,1-1.505C225.1,10.086,223.713,8.469,222.17,8.469Zm-4.483-1.645a3.24,3.24,0,0,1-.835-.656,2.505,2.505,0,0,1-.174-2.632c.761-1.305,2.389-1.463,3.824-1.6.358-.035.7-.068,1.016-.119a5.913,5.913,0,0,1-.528,3.807,2.58,2.58,0,0,1-2.012,1.557,7.9,7.9,0,0,1,.952-4.159C218.8,3.407,218.018,5.021,217.687,6.824Zm6.369,4.635a2.338,2.338,0,0,1-1.9,1.358,1.753,1.753,0,0,1-1.392-.777,5.822,5.822,0,0,1,2.592-1.3,5.922,5.922,0,0,0-2.835.69,1.91,1.91,0,0,1,.287-1.2,1.694,1.694,0,0,1,1.359-.762,4.856,4.856,0,0,1,2.337,1.244C224.375,10.919,224.225,11.166,224.056,11.459Z" transform="translate(-215.381 -0.461)" fill="#fff" stroke="#fff" stroke-width="0.8"/>
      </g>
    </g>
    <g id="Group_44980" data-name="Group 44980" transform="translate(8.001 8.023)">
      <g id="Group_44979" data-name="Group 44979">
        <path id="Path_119474" data-name="Path 119474" d="M134.053,130.2a2.512,2.512,0,0,0-2.284-1.406,3.7,3.7,0,0,0-2.315.92,8.577,8.577,0,0,1-1.471,1.05c.7.7,1.5,3.049,3.245,3.309a2.664,2.664,0,0,0,2.049-.477,2.88,2.88,0,0,0,1.109-1.735A2.774,2.774,0,0,0,134.053,130.2Zm-1.371,2.594a1.668,1.668,0,0,1-1.305.29c-.848-.126-1.522-1.326-1.977-2.057.2-.146.423-.322.686-.536a2.743,2.743,0,0,1,1.683-.7,1.608,1.608,0,0,1,1.563,1.273A5.885,5.885,0,0,0,130.5,131a5.92,5.92,0,0,1,2.888.761A1.941,1.941,0,0,1,132.682,132.8Z" transform="translate(-127.984 -128.797)" fill="#fff" stroke="#fff" stroke-width="0.8"/>
      </g>
    </g>
  </g>
</svg>
