<svg xmlns="http://www.w3.org/2000/svg" width="28.422" height="28.252" viewBox="0 0 28.422 28.252">
  <g id="Group_45171" data-name="Group 45171" transform="translate(0 0)">
    <path id="Path_119564" data-name="Path 119564" d="M121.459,342.163a3.539,3.539,0,0,1-.226-2.292,1.351,1.351,0,0,1,1.448-1.094,1.435,1.435,0,0,1,1.331,1.254c0,.039,0,.079.007.118.027.33.212.527.487.519a.481.481,0,0,0,.462-.514,1.416,1.416,0,0,1,2.819-.145,3.336,3.336,0,0,1-.254,2.132,1.234,1.234,0,0,1,.278,2.11l.19.2,1.657-1.655a1.221,1.221,0,0,1,.336-2.066,3.279,3.279,0,0,1-.284-1.917,1.421,1.421,0,0,1,2.839-.1c.027.34.2.533.471.536s.453-.191.48-.527a1.42,1.42,0,0,1,2.839.086,3.253,3.253,0,0,1-.29,1.924,1.258,1.258,0,0,1,.755.962,1.242,1.242,0,0,1-.471,1.136l.5.481a4.456,4.456,0,0,1,.81-.253,1.408,1.408,0,0,1,1.542,1.365c.037.418.406.659.709.439a.654.654,0,0,0,.231-.413,1.428,1.428,0,1,1,2.853.128c.005,1.228,0,1.263-.281,1.847a1.272,1.272,0,0,1,.741.951,1.23,1.23,0,0,1-.476,1.145c.517.517,1.024,1.025,1.532,1.532a4.613,4.613,0,0,1,1.393,2.619,4.75,4.75,0,0,1-1.552,4.383c-.057.054-.119.1-.227.2h2.167v.95h-28.4v-.921l.427-.022a2.4,2.4,0,0,1-.285-2.268,2.363,2.363,0,0,1,1.7-1.467l.025-.082a1.071,1.071,0,0,0-.356-1.1,4.69,4.69,0,0,1,.2-6.484c.519-.528,1.049-1.044,1.6-1.586a1.258,1.258,0,0,1-.481-1.124A1.227,1.227,0,0,1,121.459,342.163Zm13.292,12.479c.158-.188.283-.363.435-.511a6.266,6.266,0,0,1,.5-.4,1.407,1.407,0,0,0-1.874-.583c-.213.106-.35.232-.313.5.025.184,0,.375.007.562a1.669,1.669,0,0,1-.864,1.575,3.957,3.957,0,0,1-4.024-.041,1.676,1.676,0,0,1-.806-1.519c.021-.73.013-1.461,0-2.192a2.358,2.358,0,0,0-2.915-2.288,2.27,2.27,0,0,0-1.69,1.529l1.023.967c-.2.121-.322.2-.447.272s-.271.153-.4.227a1.486,1.486,0,0,0-1.865-.555,1.323,1.323,0,0,0-.785,1.279l1.1.559-.652.739c-.1-.061-.166-.114-.243-.155a1.423,1.423,0,0,0-2.12,1.341,1.432,1.432,0,0,0,1.544,1.313h16.317a2.242,2.242,0,0,0,.237,0,1.378,1.378,0,0,0,1.22-.894,1.332,1.332,0,0,0-.3-1.5,1.284,1.284,0,0,0-1.462-.354,4.917,4.917,0,0,0-.872.576Zm6.806-.236c0-.559,0-1.091,0-1.623a5.915,5.915,0,0,0-1.047-3.337c-.506-.742-.545-.762-1.44-.711a.4.4,0,0,0-.251.111,6.068,6.068,0,0,0-1.511,4.669,2.37,2.37,0,0,1,1.716,1.471,2.4,2.4,0,0,1-.285,2.267c.956,0,1.873,0,2.789,0a2.074,2.074,0,0,0,.468-.07,3.666,3.666,0,0,0,2.826-2.588,3.628,3.628,0,0,0-.889-3.751c-.6-.641-1.254-1.232-1.851-1.876-.27-.291-.551-.24-.909-.207a7.955,7.955,0,0,1,1.306,5.649Zm-11.418-5.658.26-.013a3.764,3.764,0,0,1,2.24.525,1.677,1.677,0,0,1,.865,1.576c-.02.43,0,.861,0,1.291a5.406,5.406,0,0,1,1.2-1.947c.548-.552,1.108-1.091,1.678-1.651a1.224,1.224,0,0,1-.5-1.153,1.2,1.2,0,0,1,.677-.919,10.664,10.664,0,0,1-.208-1.079,4.223,4.223,0,0,0-.043-1.17c-.147-.346-.563-.569-.814-.883s-.568-.306-.945-.264a6.92,6.92,0,0,1,1.176,2.734l-.9.174c-.03-.1-.058-.168-.076-.243a6.679,6.679,0,0,0-.9-2.016,1.191,1.191,0,0,0-1.294-.68c-.2.032-.365.052-.47.23-.346.582-.694,1.164-1.028,1.753a3.617,3.617,0,0,0-.2.523l-.886-.255a7.042,7.042,0,0,1,1.059-2.225,13.64,13.64,0,0,0-2.451,2.345C130.088,346.049,130.256,347.318,130.139,348.749Zm-9.811,3.173a2.349,2.349,0,0,1,1.654-.811.36.36,0,0,0,.381-.264,3.152,3.152,0,0,1,2.575-2.058,9.983,9.983,0,0,1,1.546.009c-.388-1.332.289-2.434.975-3.512-.662-.8-.9-.932-1.4-.774l.671,1.168-.851.386c-.222-.359-.434-.69-.634-1.028a1.048,1.048,0,0,0-1.132-.59.822.822,0,0,0-.622.3,6.01,6.01,0,0,0-1.366,3.825c0,.52,0,1.04,0,1.56h-.933c-.039-2.035-.161-3.433,1.261-5.666a.672.672,0,0,0-.275.147q-.645.633-1.278,1.277a12.242,12.242,0,0,0-1.011,1.079A3.732,3.732,0,0,0,120.327,351.922Zm8.433.151c0,.761.007,1.49,0,2.219a.72.72,0,0,0,.3.609,2.949,2.949,0,0,0,3.2-.014.72.72,0,0,0,.275-.431c.027-.784.013-1.569.013-2.383A4.2,4.2,0,0,1,128.76,352.073Zm4.266-11.4c.473,0,.946.008,1.419,0a.942.942,0,0,0,.948-.936c.01-.305.008-.611,0-.917a.474.474,0,1,0-.946-.025,1.422,1.422,0,0,1-2.844,0,.474.474,0,1,0-.946.027c-.007.286,0,.572,0,.858a.952.952,0,0,0,1.009,1C132.12,340.674,132.573,340.671,133.026,340.671Zm-8.544,1.423h1.449a.949.949,0,0,0,.93-.925c.011-.3.006-.591,0-.887,0-.334-.174-.54-.448-.555s-.44.193-.51.532a2.244,2.244,0,0,1-.325.834,1.348,1.348,0,0,1-1.51.462,1.434,1.434,0,0,1-1-1.3c-.027-.336-.2-.529-.477-.528s-.467.212-.472.561q-.005.4,0,.8a.952.952,0,0,0,1,1.008C123.576,342.1,124.029,342.093,124.483,342.093Zm15.167,4.266c.483,0,.966.009,1.449,0a.939.939,0,0,0,.93-.923c.011-.3.006-.592,0-.887,0-.334-.174-.539-.449-.554s-.439.193-.51.533a2.244,2.244,0,0,1-.325.834,1.348,1.348,0,0,1-1.511.462,1.434,1.434,0,0,1-1-1.3c-.027-.336-.2-.529-.477-.528s-.467.213-.471.561q-.005.4,0,.8a.952.952,0,0,0,1,1.007C138.743,346.364,139.2,346.36,139.65,346.359Zm-8.959,5.22a2.745,2.745,0,0,0,1.488-.417c.5-.342.494-.73-.006-1.076a3.029,3.029,0,0,0-3.04,0c-.495.345-.5.736.008,1.076A2.792,2.792,0,0,0,130.691,351.579Zm-1.45-3.479a2.487,2.487,0,0,0-.362-1.351.638.638,0,0,0-1.168-.017,2.2,2.2,0,0,0-.343,1.635,1.856,1.856,0,0,0,.489,1.115c.159.157.323.254.515.018a.913.913,0,0,1,.35-.265.755.755,0,0,0,.448-.64C129.2,348.412,129.222,348.226,129.24,348.1Zm5.379,3.9a6.828,6.828,0,0,1,.926.334,6.648,6.648,0,0,1,.792.57,7.028,7.028,0,0,1,1.325-4.156A11.948,11.948,0,0,0,134.619,352Zm-1.592-9.91c.828,0,1.657,0,2.485,0,.184,0,.358-.024.347-.254-.01-.21-.181-.222-.35-.222q-1.435,0-2.87,0c-.71,0-1.42,0-2.13,0-.18,0-.347.052-.307.251a.4.4,0,0,0,.31.214C131.35,342.1,132.189,342.093,133.027,342.094Zm-8.562,1.422c.858,0,1.716.007,2.574-.01a.372.372,0,0,0,.28-.215c.037-.178-.107-.249-.281-.249-1.7,0-3.393,0-5.089.01a.371.371,0,0,0-.28.216c-.038.178.107.252.281.249.059,0,.118,0,.178,0Zm15.165,4.267q1.287,0,2.574,0c.173,0,.319-.069.282-.248a.37.37,0,0,0-.279-.217c-1.7-.013-3.392-.009-5.089-.01-.173,0-.319.069-.282.248.019.091.176.161.281.222.044.026.116,0,.175,0Z" transform="translate(-117.856 -329.943)" fill="#85bb51"/>
    <path id="Path_119565" data-name="Path 119565" d="M438.58,306.407c.157-.136.333-.265.482-.421a1.521,1.521,0,0,0,.039-2.116,2.481,2.481,0,0,1,0-3.607,1.526,1.526,0,0,0,.088-1.984l-.109-.151.666-.64a2.409,2.409,0,0,1,.688,2.063,2.493,2.493,0,0,1-.666,1.391,1.535,1.535,0,0,0,0,2.248,2.489,2.489,0,0,1-.074,3.52c-.136.141-.251.3-.386.467Z" transform="translate(-412.963 -293.233)" fill="#85bb51"/>
    <path id="Path_119566" data-name="Path 119566" d="M222.587,298.624v.911a2.247,2.247,0,0,1-2.788-1.686,2.109,2.109,0,0,1,1.907-2.526c.914-.049,1.832-.01,2.768-.01v.942h-1.237c-.464,0-.928-.01-1.391,0a1.183,1.183,0,0,0,0,2.364C222.083,298.632,222.319,298.624,222.587,298.624Z" transform="translate(-211.694 -291.216)" fill="#85bb51"/>
    <path id="Path_119567" data-name="Path 119567" d="M355.343,267.942l-.7.657c-1-.8-1.559-1.529-1.254-2.732a2.5,2.5,0,0,1,.508-.917,1.233,1.233,0,0,0-.059-1.84c-.2-.2-.407-.4-.621-.608l.669-.633c1,.8,1.561,1.536,1.253,2.733a2.606,2.606,0,0,1-.526.94,1.221,1.221,0,0,0,.06,1.794C354.884,267.545,355.112,267.734,355.343,267.942Z" transform="translate(-334.595 -260.433)" fill="#85bb51"/>
    <path id="Path_119568" data-name="Path 119568" d="M171.028,262.261l.665-.625a2.4,2.4,0,0,1,.689,1.991,2.469,2.469,0,0,1-.651,1.429,1.545,1.545,0,0,0,.079,2.37c.1.1.228.187.358.293l-.724.655a2.55,2.55,0,0,1-.431-3.952C171.612,263.808,171.594,263.141,171.028,262.261Z" transform="translate(-166.12 -260.218)" fill="#85bb51"/>
    <path id="Path_119569" data-name="Path 119569" d="M163.608,244.642l-.639.6-.907-.907.618-.62Z" transform="translate(-158.564 -243.712)" fill="#85bb51"/>
    <path id="Path_119570" data-name="Path 119570" d="M335.913,244.454l.583-.589.925.926-.612.554Z" transform="translate(-318.658 -243.853)" fill="#85bb51"/>
    <path id="Path_119571" data-name="Path 119571" d="M431.239,281.709l-.894-.886.617-.564.894.889Z" transform="translate(-405.617 -277.367)" fill="#85bb51"/>
    <path id="Path_119572" data-name="Path 119572" d="M292.809,295.68v.911H291.9v-.911Z" transform="translate(-278.126 -291.568)" fill="#85bb51"/>
  </g>
</svg>
