<svg xmlns="http://www.w3.org/2000/svg" width="30.587" height="30.596" viewBox="0 0 30.587 30.596">
  <g id="Group_45164" data-name="Group 45164" transform="translate(0)">
    <path id="Path_119522" data-name="Path 119522" d="M176.844,260.034a.752.752,0,0,1-.367-.664,1.818,1.818,0,0,0-1.272-1.645c-.485-.186-.527-.233-.527-.761q0-7.466,0-14.933a1.044,1.044,0,0,0-.292-.9,1.359,1.359,0,0,0-.736-.317c-2.927-.022-5.855-.018-8.782-.013a1.011,1.011,0,0,0-1.034,1.1c0,1.224,0,2.449,0,3.673,0,.314.052.664-.358.792-.382.119-.559-.166-.752-.4a8.406,8.406,0,1,1,14.868-6.33,13.4,13.4,0,0,1-.034,2.318c-.023.455-.259.673-.583.636-.343-.039-.5-.308-.421-.779a7.214,7.214,0,0,0-.249-3.361,7.394,7.394,0,0,0-14.447,2.378,7.133,7.133,0,0,0,.93,3.4c.012-.157.024-.238.024-.32,0-.657,0-1.314,0-1.971a2.037,2.037,0,0,1,2.15-2.159q4.3,0,8.6,0A2.032,2.032,0,0,1,175.7,241.9c.007,2.041,0,4.082,0,6.122v.414c.319-.3.6-.531.842-.8a9.775,9.775,0,0,0,2.349-10.089,9.661,9.661,0,0,0-7.825-6.9,10.04,10.04,0,0,0-11.777,8.254,9.85,9.85,0,0,0,4.159,9.988.839.839,0,0,1,.4.741c-.013,1.613-.007,3.225-.01,4.838,0,.4-.179.607-.5.612s-.521-.22-.521-.625c0-1.483-.006-2.967,0-4.45a.547.547,0,0,0-.248-.49,10.828,10.828,0,0,1-4.428-9.612,11.13,11.13,0,0,1,21.963-1.8,10.848,10.848,0,0,1-4.189,11.428.5.5,0,0,0-.225.443c.013.665,0,1.33,0,2.033h.378l7.647,0c.109,0,.219,0,.328.006a.5.5,0,0,1,.5.493.512.512,0,0,1-.48.516,2.365,2.365,0,0,1-.3.007h-8.048c-.01.1-.023.173-.024.249,0,1.1,0,2.19-.005,3.285a.349.349,0,0,0,.223.363,2.825,2.825,0,0,1,1.591,2.426.623.623,0,0,1-.365.68Z" transform="translate(-153.962 -229.437)" fill="#87bd52"/>
    <path id="Path_119523" data-name="Path 119523" d="M194.6,562.956a.64.64,0,0,1-.367-.68,2.931,2.931,0,0,1,3.873-2.6c.093.032.185.068.29.108a2.914,2.914,0,0,1,1.7-1.084,2.81,2.81,0,0,1,2.125.336.446.446,0,0,0,.546-.01,2.923,2.923,0,0,1,4.053,1.154.516.516,0,0,1-.124.717c-.272.193-.586.1-.79-.256a1.91,1.91,0,0,0-2.96-.494c-.371.333-.541.33-.922-.006a1.9,1.9,0,0,0-2.931.455c-.267.443-.484.5-.923.233a1.9,1.9,0,0,0-2.908,1.523.709.709,0,0,1-.36.6Z" transform="translate(-187.196 -532.36)" fill="#87bd52"/>
    <path id="Path_119524" data-name="Path 119524" d="M106,512.583a.768.768,0,0,1,.713-.324c1.911.01,3.822,0,5.733.006a1.8,1.8,0,0,1,.3.013.469.469,0,0,1,.42.469.463.463,0,0,1-.345.5,1.065,1.065,0,0,1-.323.039c-1.931,0-3.862,0-5.793,0a.738.738,0,0,1-.7-.348Z" transform="translate(-106 -489.693)" fill="#87bd52"/>
    <path id="Path_119525" data-name="Path 119525" d="M267.255,450.365c0-.895-.006-1.789.005-2.684a.779.779,0,0,1,.119-.473.583.583,0,0,1,.457-.188c.153.03.289.2.406.336.048.056.037.172.037.26q0,2.729,0,5.457c0,.358-.143.56-.4.61-.351.067-.613-.166-.617-.575-.008-.716,0-1.431,0-2.147q0-.3,0-.6Z" transform="translate(-254.387 -429.654)" fill="#87bd52"/>
    <path id="Path_119526" data-name="Path 119526" d="M316.249,425.957c0,.815,0,1.629,0,2.444a1.486,1.486,0,0,1-.03.355.5.5,0,0,1-.961,0,1.468,1.468,0,0,1-.03-.354q0-2.414,0-4.829c0-.5.18-.754.525-.744s.5.252.5.741Q316.25,424.765,316.249,425.957Z" transform="translate(-298.531 -407.4)" fill="#87bd52"/>
    <path id="Path_119527" data-name="Path 119527" d="M315.236,516.212c0-.365.211-.6.521-.595s.508.25.5.615-.2.595-.523.59S315.233,516.587,315.236,516.212Z" transform="translate(-298.541 -492.782)" fill="#87bd52"/>
  </g>
</svg>
