<svg xmlns="http://www.w3.org/2000/svg" width="27.718" height="27.722" viewBox="0 0 27.718 27.722">
  <g id="Group_45165" data-name="Group 45165" transform="translate(0)">
    <path id="Path_119533" data-name="Path 119533" d="M169.13,426.858c0-.166,0-.3,0-.428,0-1.162,0-2.325,0-3.487,0-.505.209-.713.711-.715,1.173,0,2.347,0,3.52,0h.376c.071-.479-.13-1.15.611-1.143.719.006.536.651.59,1.145h.361l3.487,0c.571,0,.768.192.769.759,0,1.273,0,2.546,0,3.875h6.135c.534,0,.744.211.745.753q0,3.286,0,6.572c0,.575-.213.785-.793.785H162.98c-.581,0-.794-.208-.794-.783q0-3.286,0-6.572c0-.538.218-.756.751-.756q2.9,0,5.8,0Zm1.154-3.452v10.371h8.021V423.406Zm14.945,10.371V428.05h-5.715v5.727Zm-21.844-5.735v1.131h5.724v-1.131Zm0,4.6v1.128h5.724v-1.128Zm-.009-1.173h5.731v-1.111h-5.731Z" transform="translate(-160.432 -407.248)" fill="#86bc51"/>
    <path id="Path_119534" data-name="Path 119534" d="M144.509,272.588l1.233,1.23c.3-.246.6-.508.909-.752a16.746,16.746,0,0,1,17.32-1.988c.061.028.124.052.182.085a.585.585,0,1,1-.516,1.049,24.971,24.971,0,0,0-2.727-1,15.114,15.114,0,0,0-14.521,3.611c-.083.074-.16.156-.246.228a.558.558,0,0,1-.815,0q-1.042-1-2.056-2.021c-.283-.286-.236-.608.1-.936a19.143,19.143,0,0,1,4.043-3.018,19.632,19.632,0,0,1,23,2.959c.064.062.132.121.19.189a.562.562,0,0,1,0,.786.582.582,0,0,1-.79.049c-.256-.216-.487-.461-.738-.682a17.779,17.779,0,0,0-10.521-4.519,18.04,18.04,0,0,0-13.9,4.613C144.611,272.5,144.568,272.539,144.509,272.588Z" transform="translate(-143.047 -266.63)" fill="#86bc51"/>
    <path id="Path_119535" data-name="Path 119535" d="M240.374,337.854l1.23-1.233a12.47,12.47,0,0,0-3.749-2.357,12.158,12.158,0,0,0-3.133-.813c-.432-.052-.661-.314-.612-.681a.621.621,0,0,1,.749-.494,13.749,13.749,0,0,1,7.887,3.8c.422.408.429.688.016,1.1q-.875.879-1.754,1.755a.715.715,0,0,1-1.159.02,9.762,9.762,0,0,0-11.964-1.236c-.066.041-.131.085-.2.125a.566.566,0,0,1-.822-.148.541.541,0,0,1,.206-.8,16,16,0,0,1,2.458-1.2,10.752,10.752,0,0,1,10.706,2.048Z" transform="translate(-219.228 -326.389)" fill="#86bc51"/>
    <path id="Path_119536" data-name="Path 119536" d="M386.391,425.562c-.086.9-.211,1.147-.6,1.143a.536.536,0,0,1-.552-.408,5.369,5.369,0,0,1-.072-.814c-.547.063-1.076.1-1.594.191-.559.1-1.106.266-1.659.4a.524.524,0,0,1-.724-.532q-.017-1.743,0-3.487a.518.518,0,0,1,.683-.524c.415.085.831.176,1.236.3a6.207,6.207,0,0,0,2.082.249c.424-.019.85-.012,1.274,0a1.086,1.086,0,0,1,1.047,1.026c.022.446.021.894,0,1.34C387.492,425.035,387.116,425.4,386.391,425.562Zm-4.032-.785c.34-.078.646-.133.942-.224a.34.34,0,0,0,.2-.237,9.29,9.29,0,0,0,0-1.033.277.277,0,0,0-.146-.209c-.323-.093-.655-.159-1-.238Zm2.341-.422h1.678v-1.119H384.7Z" transform="translate(-359.817 -407.644)" fill="#86bc51"/>
    <path id="Path_119537" data-name="Path 119537" d="M240.27,391.793a.607.607,0,0,1-.789.632,1.192,1.192,0,0,1-.35-.249,7.466,7.466,0,0,0-10.335,0,.922.922,0,0,1-.633.26.655.655,0,0,1-.439-.422.747.747,0,0,1,.195-.584,7.467,7.467,0,0,1,2.886-1.9,8.507,8.507,0,0,1,9.159,1.828A2.1,2.1,0,0,1,240.27,391.793Z" transform="translate(-220.095 -377.975)" fill="#86bc51"/>
    <path id="Path_119538" data-name="Path 119538" d="M193.878,335.017c.009.313-.165.508-.549.6a12.8,12.8,0,0,0-5.577,2.977c-.124.112-.239.234-.364.346a.6.6,0,0,1-.89.017.567.567,0,0,1,.08-.857,13.459,13.459,0,0,1,6.129-3.533c.161-.043.323-.092.487-.119A.591.591,0,0,1,193.878,335.017Z" transform="translate(-182.422 -328.369)" fill="#86bc51"/>
    <path id="Path_119539" data-name="Path 119539" d="M169.507,403.46c0,.357.007.713,0,1.07a.61.61,0,0,1-.587.643.592.592,0,0,1-.578-.614c-.013-.746-.015-1.494,0-2.24a.576.576,0,0,1,.583-.6.6.6,0,0,1,.584.642c.006.189,0,.379,0,.568S169.507,403.281,169.507,403.46Z" transform="translate(-166.027 -389.615)" fill="#86bc51"/>
    <path id="Path_119540" data-name="Path 119540" d="M142.632,409.982c0-.346-.005-.691,0-1.037a.6.6,0,0,1,.595-.663c.345,0,.568.234.574.641q.016,1.087,0,2.174a.582.582,0,0,1-.59.632.6.6,0,0,1-.58-.644c-.008-.368,0-.736,0-1.1Z" transform="translate(-142.628 -395.595)" fill="#86bc51"/>
    <path id="Path_119541" data-name="Path 119541" d="M195.55,410.009c0,.357.007.713,0,1.07a.591.591,0,1,1-1.175,0q-.013-1.069,0-2.139a.594.594,0,0,1,.572-.652c.347-.008.584.251.6.657,0,.022,0,.045,0,.067q0,.5,0,1Z" transform="translate(-189.732 -395.595)" fill="#86bc51"/>
    <path id="Path_119542" data-name="Path 119542" d="M412.651,345.554c.465.006,1.13.577,1.115.915a.738.738,0,0,1-.282.539.752.752,0,0,1-.61-.025,1.291,1.291,0,0,1-.527-.5.816.816,0,0,1-.062-.612C412.343,345.715,412.572,345.618,412.651,345.554Z" transform="translate(-388.101 -338.485)" fill="#86bc51"/>
    <path id="Path_119543" data-name="Path 119543" d="M143.284,461.181a.606.606,0,0,1-.569-.586.6.6,0,0,1,.621-.565.548.548,0,0,1,.541.592A.591.591,0,0,1,143.284,461.181Z" transform="translate(-142.706 -442.706)" fill="#86bc51"/>
    <path id="Path_119544" data-name="Path 119544" d="M195.064,461.181a.6.6,0,0,1-.6-.557.592.592,0,0,1,.555-.594.576.576,0,0,1,.611.566A.6.6,0,0,1,195.064,461.181Z" transform="translate(-189.824 -442.707)" fill="#86bc51"/>
    <path id="Path_119545" data-name="Path 119545" d="M284.291,331.828a.58.58,0,0,1-1.159-.016.592.592,0,0,1,.569-.579A.6.6,0,0,1,284.291,331.828Z" transform="translate(-270.547 -325.446)" fill="#86bc51"/>
    <path id="Path_119546" data-name="Path 119546" d="M169.383,454.586a.589.589,0,0,1-.563-.588.6.6,0,0,1,.591-.566.613.613,0,0,1,.56.6A.571.571,0,0,1,169.383,454.586Z" transform="translate(-166.474 -436.7)" fill="#86bc51"/>
    <path id="Path_119547" data-name="Path 119547" d="M391.653,329.763a.557.557,0,0,1,.571.57.547.547,0,0,1-.566.539.611.611,0,0,1-.588-.536A.594.594,0,0,1,391.653,329.763Z" transform="translate(-368.818 -324.108)" fill="#86bc51"/>
    <path id="Path_119548" data-name="Path 119548" d="M291.653,511.308a.583.583,0,1,1-.577.58A.613.613,0,0,1,291.653,511.308Z" transform="translate(-277.78 -489.392)" fill="#86bc51"/>
    <path id="Path_119549" data-name="Path 119549" d="M292.212,486.207a.584.584,0,0,1-1.168-.011.584.584,0,1,1,1.168.011Z" transform="translate(-277.751 -465.998)" fill="#86bc51"/>
    <path id="Path_119550" data-name="Path 119550" d="M318,460.58a.6.6,0,0,1-.577.577.577.577,0,1,1,.011-1.154A.569.569,0,0,1,318,460.58Z" transform="translate(-301.241 -442.683)" fill="#86bc51"/>
    <path id="Path_119551" data-name="Path 119551" d="M265.987,512.443a.584.584,0,1,1,0-1.169.585.585,0,0,1,0,1.169Z" transform="translate(-254.401 -489.362)" fill="#86bc51"/>
    <path id="Path_119552" data-name="Path 119552" d="M266.568,537.946a.583.583,0,0,1-.569.577.6.6,0,0,1-.585-.6.609.609,0,0,1,.594-.562A.572.572,0,0,1,266.568,537.946Z" transform="translate(-254.416 -513.114)" fill="#86bc51"/>
    <path id="Path_119553" data-name="Path 119553" d="M292.245,537.931a.584.584,0,1,1-.587-.568A.6.6,0,0,1,292.245,537.931Z" transform="translate(-277.781 -513.114)" fill="#86bc51"/>
    <path id="Path_119554" data-name="Path 119554" d="M318.024,511.9a.611.611,0,0,1-.583.573.584.584,0,0,1,.023-1.168A.61.61,0,0,1,318.024,511.9Z" transform="translate(-301.262 -489.387)" fill="#86bc51"/>
    <path id="Path_119555" data-name="Path 119555" d="M291.68,460.03a.576.576,0,0,1,.553.59.583.583,0,1,1-.553-.59Z" transform="translate(-277.772 -442.707)" fill="#86bc51"/>
    <path id="Path_119556" data-name="Path 119556" d="M317.419,537.342a.581.581,0,1,1,0,1.162.585.585,0,0,1-.566-.581A.6.6,0,0,1,317.419,537.342Z" transform="translate(-301.244 -513.094)" fill="#86bc51"/>
    <path id="Path_119557" data-name="Path 119557" d="M266.011,460.032a.555.555,0,0,1,.557.578.585.585,0,0,1-.572.574.6.6,0,0,1-.582-.6A.591.591,0,0,1,266.011,460.032Z" transform="translate(-254.416 -442.709)" fill="#86bc51"/>
    <path id="Path_119558" data-name="Path 119558" d="M317.448,485.627a.607.607,0,0,1,.569.592.589.589,0,0,1-.591.563.574.574,0,0,1-.563-.585A.591.591,0,0,1,317.448,485.627Z" transform="translate(-301.256 -466.011)" fill="#86bc51"/>
    <path id="Path_119559" data-name="Path 119559" d="M266,486.784a.589.589,0,0,1-.583-.572.606.606,0,0,1,.577-.583.59.59,0,0,1,.577.578A.574.574,0,0,1,266,486.784Z" transform="translate(-254.416 -466.014)" fill="#86bc51"/>
    <path id="Path_119560" data-name="Path 119560" d="M395.365,511.884a.578.578,0,1,1-.572-.579A.594.594,0,0,1,395.365,511.884Z" transform="translate(-371.674 -489.39)" fill="#86bc51"/>
    <path id="Path_119561" data-name="Path 119561" d="M369.761,537.664a.6.6,0,0,1-.6.586.542.542,0,0,1-.551-.55.577.577,0,1,1,1.153-.036Z" transform="translate(-348.368 -512.87)" fill="#86bc51"/>
    <path id="Path_119562" data-name="Path 119562" d="M369.131,512.47a.579.579,0,0,1-.524-.649.576.576,0,1,1,.524.649Z" transform="translate(-348.363 -489.391)" fill="#86bc51"/>
    <path id="Path_119563" data-name="Path 119563" d="M395.357,537.692a.591.591,0,0,1-.583.565.577.577,0,1,1,.029-1.153A.573.573,0,0,1,395.357,537.692Z" transform="translate(-371.668 -512.879)" fill="#86bc51"/>
  </g>
</svg>
