<svg xmlns="http://www.w3.org/2000/svg" width="24.299" height="30.374" viewBox="0 0 24.299 30.374">
  <g id="file" transform="translate(-64 -16)">
    <path id="Path_119575" data-name="Path 119575" d="M81.718,16H66.531A2.534,2.534,0,0,0,64,18.531V43.842a2.534,2.534,0,0,0,2.531,2.531H85.768A2.534,2.534,0,0,0,88.3,43.842V22.581a.506.506,0,0,0-.148-.358l-6.075-6.075A.506.506,0,0,0,81.718,16Zm5.568,27.842a1.52,1.52,0,0,1-1.519,1.519H66.531a1.52,1.52,0,0,1-1.519-1.519V18.531a1.52,1.52,0,0,1,1.519-1.519H81.212v3.544a2.534,2.534,0,0,0,2.531,2.531h3.544ZM82.224,17.728l4.346,4.346H83.743a1.52,1.52,0,0,1-1.519-1.519Z" fill="#87bd52"/>
    <path id="Path_119576" data-name="Path 119576" d="M169.519,232a1.519,1.519,0,1,0,1.519,1.519A1.519,1.519,0,0,0,169.519,232Zm0,2.025a.506.506,0,1,1,.506-.506A.506.506,0,0,1,169.519,234.025Z" transform="translate(-97.419 -202.332)" fill="#87bd52"/>
    <path id="Path_119577" data-name="Path 119577" d="M233.519,232a1.519,1.519,0,1,0,1.519,1.519A1.519,1.519,0,0,0,233.519,232Zm0,2.025a.506.506,0,1,1,.506-.506A.506.506,0,0,1,233.519,234.025Z" transform="translate(-157.369 -202.332)" fill="#87bd52"/>
    <path id="Path_119578" data-name="Path 119578" d="M297.519,232a1.519,1.519,0,1,0,1.519,1.519A1.519,1.519,0,0,0,297.519,232Zm0,2.025a.506.506,0,1,1,.506-.506A.506.506,0,0,1,297.519,234.025Z" transform="translate(-217.319 -202.332)" fill="#87bd52"/>
  </g>
</svg>
