<svg xmlns="http://www.w3.org/2000/svg" width="30.308" height="30.452" viewBox="0 0 30.308 30.452">
  <g id="garbage" transform="translate(0 0)">
    <path id="Path_119528" data-name="Path 119528" d="M155.172,272.786a6.047,6.047,0,0,0-3.824-4.712l.973-3.4a.525.525,0,0,0-.5-.669h-5.25a.525.525,0,0,0-.5.669l.973,3.4a6.047,6.047,0,0,0-3.824,4.712l-.359,2.273a3.15,3.15,0,0,0,3.112,3.642h6.456a3.15,3.15,0,0,0,3.112-3.642Zm-7.91-7.736h3.858l-.782,2.736a5.979,5.979,0,0,0-2.295,0Zm6.754,11.865a2.1,2.1,0,0,1-1.6.736h-6.456a2.1,2.1,0,0,1-2.075-2.428l.359-2.274a5,5,0,0,1,3.834-4.1l-1.943,2.72.854.61,1.673-2.342V272.4h1.05v-2.562l1.673,2.342.854-.61-1.943-2.72a5,5,0,0,1,3.834,4.1l.359,2.274A2.1,2.1,0,0,1,154.016,276.915Z" transform="translate(-135.154 -248.249)" fill="#85bb51"/>
    <path id="Path_119529" data-name="Path 119529" d="M302.24,185.895a6.909,6.909,0,0,0-4.7-5.87l.959-3.355a.525.525,0,0,0-.5-.669h-5.25a.525.525,0,0,0-.5.669l.959,3.355a6.887,6.887,0,0,0-1.806.911l.605.858a5.819,5.819,0,0,1,2.114-.932l-2.29,2.672.8.683,2.227-2.6v3.306h1.05V181.62l2.227,2.6.8-.683-2.291-2.673A5.835,5.835,0,0,1,301.2,186l.712,7.118a2.1,2.1,0,0,1-2.09,2.309h-4.975v1.05h4.975a3.15,3.15,0,0,0,3.135-3.464Zm-8.8-8.845H297.3l-.778,2.723a6.866,6.866,0,0,0-2.3,0Z" transform="translate(-273.98 -166.024)" fill="#85bb51"/>
    <path id="Path_119530" data-name="Path 119530" d="M407.128,214.977a9.011,9.011,0,0,0-2.141-1.44l-.455.946a7.964,7.964,0,0,1,4.433,6.073l1.04-.145A9.019,9.019,0,0,0,407.128,214.977Z" transform="translate(-379.697 -201.098)" fill="#85bb51"/>
    <path id="Path_119531" data-name="Path 119531" d="M46.171,52.7a2.1,2.1,0,0,1-.525-1.629l1.4-12.891A8.824,8.824,0,0,1,54.7,30.373l-2.96,3.806.829.645,2.736-3.518v4.77h1.05v-4.77l2.736,3.518.829-.645-2.959-3.8a8.883,8.883,0,0,1,5.312,2.715l.765-.719A9.924,9.924,0,0,0,58.776,29.7l1.455-5.031a.525.525,0,0,0-.5-.671H51.851a.525.525,0,0,0-.507.662l1.372,5.089A9.874,9.874,0,0,0,46,38.07L44.6,50.961a3.15,3.15,0,0,0,3.132,3.491h2.849V53.4H47.734a2.1,2.1,0,0,1-1.563-.7ZM52.537,25.05h6.492l-1.27,4.392a9.818,9.818,0,0,0-1.925-.192,9.953,9.953,0,0,0-2.1.224Z" transform="translate(-43.372 -24)" fill="#85bb51"/>
    <path id="Path_119532" data-name="Path 119532" d="M30.959,116.257a10.973,10.973,0,0,1,4.361-7.613L34.7,107.8a12.026,12.026,0,0,0-4.78,8.343l-.315,2.9,1.044.113Z" transform="translate(-29.372 -102.3)" fill="#85bb51"/>
    <rect id="Rectangle_24212" data-name="Rectangle 24212" width="1.056" height="1.05" transform="matrix(0.108, -0.994, 0.994, 0.108, 0, 18.845)" fill="#85bb51"/>
  </g>
</svg>
