<svg xmlns="http://www.w3.org/2000/svg" width="24" height="24" viewBox="0 0 24 24">
  <path id="Union_1" data-name="Union 1" d="M-15114.613,1673.109c-.091-.072-.174-.144-.269-.228a10.084,10.084,0,0,1-1.158-1.153c-.105-.125-.22-.254-.311-.376l-.008-.008a11.978,11.978,0,0,1-2.562-6.139,11.964,11.964,0,0,1,1.1-6.56,11.984,11.984,0,0,1,4.429-4.963,11.987,11.987,0,0,1,6.386-1.84h.03a11.956,11.956,0,0,1,7.475,2.637c.133.11.259.213.38.319a10.532,10.532,0,0,1,1.161,1.157c.087.106.155.186.228.269a11.983,11.983,0,0,1,2.717,8.2,11.958,11.958,0,0,1-3.5,7.9,11.958,11.958,0,0,1-7.9,3.5c-.193.011-.391.015-.584.015A11.971,11.971,0,0,1-15114.613,1673.109Zm.012-1.135.781.611a11.114,11.114,0,0,0,6.819,2.353h.007a11.061,11.061,0,0,0,5.87-1.681,11.078,11.078,0,0,0,4.095-4.542,11.084,11.084,0,0,0,1.066-6.022,11.087,11.087,0,0,0-2.292-5.669l-.611-.786-3.8,3.8-.153.924a.288.288,0,0,1-.284.239h-.577v.865h1.154a.3.3,0,0,1,.22.1.287.287,0,0,1,.061.235l-.573,3.453a.291.291,0,0,1-.284.239h-.577v.577h1.154a.3.3,0,0,1,.22.1.282.282,0,0,1,.061.231l-.573,3.457a.291.291,0,0,1-.284.239h-.577v.288a.288.288,0,0,1-.288.288h-1.727V1673a.288.288,0,0,1-.288.288h-2.3a.288.288,0,0,1-.288-.288v-1.726h-1.727a.288.288,0,0,1-.288-.288v-.288h-.577a.285.285,0,0,1-.28-.239l-.235-1.408Zm6.606.74h1.727v-1.438H-15108Zm.228-19.947a11.1,11.1,0,0,0-7.08,3.221,11.079,11.079,0,0,0-3.222,7.08,11.063,11.063,0,0,0,2.224,7.456l.606.8,3.377-3.375-.159-.951a.275.275,0,0,1,.064-.231.284.284,0,0,1,.221-.1h1.149v-.577h-.577a.285.285,0,0,1-.28-.239l-.577-3.453a.28.28,0,0,1,.064-.235.284.284,0,0,1,.221-.1h1.149v-.865h-.577a.282.282,0,0,1-.28-.239l-.577-3.453a.283.283,0,0,1,.064-.235.284.284,0,0,1,.221-.1h1.149v-.577a.287.287,0,0,1,.288-.285h.873a1.012,1.012,0,0,1,1-.865h2.592a1.008,1.008,0,0,1,1,.865h.873a.287.287,0,0,1,.288.285v.577h1.154a.3.3,0,0,1,.22.1.291.291,0,0,1,.061.235l-.166,1,2.9-2.9-.8-.611a11.089,11.089,0,0,0-6.7-2.253Q-15107.389,1652.741-15107.768,1652.767Zm-2.242,17.932h5.756v-9.073l-1.141,1.14a2.008,2.008,0,0,1,.279,1.022,2.014,2.014,0,0,1-2.015,2.015,2.01,2.01,0,0,1-1.024-.278l-1.855,1.856Zm6.332-.577h.33l.482-2.876h-.812Zm-7.239,0h.33v-2.163l-.593.593Zm-.447-2.667.21-.21h-.245Zm1.354-1.353,1.2-1.2a2.005,2.005,0,0,1-.335-1.114,2.014,2.014,0,0,1,2.016-2.015,2,2,0,0,1,1.113.336l1.763-1.762v-3.469h-5.756Zm6.332-.587h.33l.482-2.876h-.812Zm-7.239,0h.33v-2.876h-.812Zm3.787-.285a1.442,1.442,0,0,0,1.438-1.442,1.442,1.442,0,0,0-.129-.6l-1.907,1.907A1.434,1.434,0,0,0-15107.13,1665.232Zm-1.442-1.442a1.435,1.435,0,0,0,.18.7l1.956-1.956a1.429,1.429,0,0,0-.693-.179A1.441,1.441,0,0,0-15108.572,1663.79Zm-2.345-3.165h.33v-2.88h-.812Zm7.239-.852.568-.567.244-1.461h-.812Zm-5.156-3.466h3.4a.428.428,0,0,0-.405-.288h-2.592A.428.428,0,0,0-15108.834,1656.307Zm-.312,12.089a2.014,2.014,0,0,1,2.016-2.015,2.016,2.016,0,0,1,2.015,2.015,2.014,2.014,0,0,1-2.015,2.015A2.012,2.012,0,0,1-15109.146,1668.4Zm.573,0a1.442,1.442,0,0,0,1.442,1.442,1.442,1.442,0,0,0,1.438-1.442,1.439,1.439,0,0,0-1.437-1.438A1.441,1.441,0,0,0-15108.572,1668.4Zm-.573-9.213a2.014,2.014,0,0,1,2.016-2.015,2.019,2.019,0,0,1,2.015,2.015,2.014,2.014,0,0,1-2.015,2.015A2.012,2.012,0,0,1-15109.146,1659.183Zm.573,0a1.442,1.442,0,0,0,1.442,1.442,1.44,1.44,0,0,0,1.438-1.442,1.439,1.439,0,0,0-1.437-1.438A1.441,1.441,0,0,0-15108.572,1659.183Z" transform="translate(15119 -1651.841)" fill="#457ace"/>
</svg>
