<svg xmlns="http://www.w3.org/2000/svg" width="22.806" height="25.058" viewBox="0 0 22.806 25.058">
  <g id="rent-a-car" transform="translate(-25.068)">
    <path id="Path_119665" data-name="Path 119665" d="M44.449,190.921a.377.377,0,0,0-.4.351v5.611a.226.226,0,0,1-.239.21h-17.7a.226.226,0,0,1-.239-.21V182.751a.4.4,0,0,0-.8,0v14.132a.98.98,0,0,0,1.035.912h17.7a.98.98,0,0,0,1.035-.912v-5.611A.377.377,0,0,0,44.449,190.921Z" transform="translate(-0.004 -172.736)" fill="#457ace"/>
    <path id="Path_119666" data-name="Path 119666" d="M59.358,69.39h2.02a.4.4,0,1,0,0-.8h-2.02a.4.4,0,1,0,0,.8Z" transform="translate(-31.93 -64.96)" fill="#457ace"/>
    <path id="Path_119667" data-name="Path 119667" d="M61.378,98.473h-2.02a.4.4,0,1,0,0,.8h2.02a.4.4,0,0,0,0-.8Z" transform="translate(-31.93 -93.256)" fill="#457ace"/>
    <path id="Path_119668" data-name="Path 119668" d="M179.981,380.209h-2.366c-.22,0-.4.25-.4.557v1.048c0,.307.179.557.4.557h2.366c.22,0,.4-.25.4-.557v-1.048C180.38,380.459,180.2,380.209,179.981,380.209Zm-.171,1.366h-2.024V381h2.024Z" transform="translate(-146.039 -361.808)" fill="#457ace"/>
    <path id="Path_119669" data-name="Path 119669" d="M97.916,290.054a.366.366,0,0,0-.321-.4H96.5l-.2-1.076a1.451,1.451,0,0,0-1.323-1.3H89.7a1.451,1.451,0,0,0-1.323,1.3l-.2,1.076H87.079a.407.407,0,0,0,0,.8h.482a3.033,3.033,0,0,0-.878,2.2v1.895a1.1,1.1,0,0,0,.963,1.194h.294v.42a.879.879,0,0,0,.771.955h.716a.9.9,0,0,0,.792-.982v-.393h4.235v.42a.879.879,0,0,0,.771.955h.716a.9.9,0,0,0,.792-.982v-.393h.337a1.05,1.05,0,0,0,.921-1.141v-2a2.979,2.979,0,0,0-.85-2.145H97.6A.366.366,0,0,0,97.916,290.054Zm-8.339,6.077a.171.171,0,0,1-.15.186h-.716a.146.146,0,0,1-.128-.159v-.42h.994v.393Zm6.514,0a.171.171,0,0,1-.15.186h-.716a.146.146,0,0,1-.128-.159v-.42h.994v.393Zm1.258-3.535v2a.317.317,0,0,1-.278.345H87.646a.366.366,0,0,1-.321-.4V292.65a1.815,1.815,0,0,1,1.591-1.972h4.491a.407.407,0,0,0,0-.8H88.917c-.044,0-.087,0-.13.005L89,288.761a.765.765,0,0,1,.7-.686h5.28a.765.765,0,0,1,.7.686l.212,1.123-.086,0H93.065a.407.407,0,0,0,0,.8H95.8A1.766,1.766,0,0,1,97.349,292.6Z" transform="translate(-59.653 -273.801)" fill="#457ace"/>
    <path id="Path_119670" data-name="Path 119670" d="M283.841,380.565a1.062,1.062,0,1,0,1.062,1.062A1.063,1.063,0,0,0,283.841,380.565Zm0,1.328a.266.266,0,1,1,.266-.266A.267.267,0,0,1,283.841,381.893Z" transform="translate(-247.811 -362.145)" fill="#457ace"/>
    <path id="Path_119671" data-name="Path 119671" d="M114.933,380.565A1.062,1.062,0,1,0,116,381.627,1.063,1.063,0,0,0,114.933,380.565Zm0,1.328a.266.266,0,1,1,.266-.266A.267.267,0,0,1,114.933,381.893Z" transform="translate(-85.446 -362.145)" fill="#457ace"/>
    <path id="Path_119672" data-name="Path 119672" d="M47.874,7.154A7.15,7.15,0,0,0,35.759,2.006H26.111A1.036,1.036,0,0,0,25.076,3.04l-.008,8.125a.4.4,0,0,0,.8,0L25.872,7.7h7.716a7.151,7.151,0,0,0,10.458,5.782l-.008,7.022a.4.4,0,0,0,.8,0L44.842,13A7.15,7.15,0,0,0,47.874,7.154Zm-22-4.113a.239.239,0,0,1,.239-.239h8.937a7.115,7.115,0,0,0-1.476,4.106h-7.7ZM40.721,13.511a6.358,6.358,0,1,1,6.358-6.358A6.365,6.365,0,0,1,40.721,13.511Z" transform="translate(0 0)" fill="#457ace"/>
    <circle id="Ellipse_8905" data-name="Ellipse 8905" cx="0.729" cy="0.729" r="0.729" transform="translate(39.688 2.683) rotate(-45)" fill="#457ace"/>
    <circle id="Ellipse_8906" data-name="Ellipse 8906" cx="0.729" cy="0.729" r="0.729" transform="translate(39.842 10.987) rotate(-13.3)" fill="#457ace"/>
    <circle id="Ellipse_8907" data-name="Ellipse 8907" cx="0.729" cy="0.729" r="0.729" transform="translate(44.268 6.56) rotate(-13.3)" fill="#457ace"/>
    <circle id="Ellipse_8908" data-name="Ellipse 8908" cx="0.729" cy="0.729" r="0.729" transform="translate(35.261 7.109) rotate(-45)" fill="#457ace"/>
    <circle id="Ellipse_8909" data-name="Ellipse 8909" cx="0.729" cy="0.729" r="0.729" transform="translate(43.123 9.51)" fill="#457ace"/>
    <circle id="Ellipse_8910" data-name="Ellipse 8910" cx="0.729" cy="0.729" r="0.729" transform="translate(36.861 3.249)" fill="#457ace"/>
    <circle id="Ellipse_8911" data-name="Ellipse 8911" cx="0.729" cy="0.729" r="0.729" transform="translate(36.861 9.51)" fill="#457ace"/>
    <path id="Path_119675" data-name="Path 119675" d="M298.2,72.488h1.7a.4.4,0,0,0,.239-.08l3.115-2.336-.05.427a.4.4,0,0,0,.349.442l.047,0a.4.4,0,0,0,.395-.352l.161-1.371a.4.4,0,0,0-.337-.44l-1.4-.208a.4.4,0,0,0-.116.787l.483.071-3.013,2.26h-1.532l.279-.267a.4.4,0,1,0-.55-.575l-1.018.975a.4.4,0,0,0,0,.577l1.032.969a.4.4,0,1,0,.545-.58Z" transform="translate(-259.178 -64.936)" fill="#457ace"/>
  </g>
</svg>
