<svg xmlns="http://www.w3.org/2000/svg" width="27.987" height="21.358" viewBox="0 0 27.987 21.358">
  <path id="Path_119642" data-name="Path 119642" d="M27.146,81.265h-1.17l-2.654-9.738H25.2a1.524,1.524,0,0,0,1.522-1.522V67.673A1.524,1.524,0,0,0,25.2,66.15h-.362v-.965a.882.882,0,0,0-.782-.875v-.332c0-.046,0-.091,0-.136,0-.006,0-.013,0-.019,0-.039-.005-.078-.009-.116l0-.017q-.006-.06-.015-.119v-.007A2.679,2.679,0,0,0,21.648,61.3h0a2.72,2.72,0,0,0-.277-.014,2.678,2.678,0,0,0-1.837.728l-.029.026-.009.01a2.68,2.68,0,0,0-.814,1.924v.332a.882.882,0,0,0-.782.875v.965H9.787v-.965a.882.882,0,0,0-.782-.875v-.332a2.68,2.68,0,0,0-.814-1.924l-.009-.01-.029-.026a2.678,2.678,0,0,0-1.837-.728,2.721,2.721,0,0,0-.277.014h0A2.679,2.679,0,0,0,3.66,63.564v.007q-.009.059-.015.119l0,.017c0,.038-.007.077-.009.116,0,.006,0,.013,0,.019,0,.045,0,.09,0,.136v.332a.882.882,0,0,0-.782.875v.965H2.483A1.524,1.524,0,0,0,.961,67.673v2.333a1.524,1.524,0,0,0,1.522,1.522H4.365L1.711,81.265H.541a.541.541,0,0,0,0,1.082H27.146a.541.541,0,0,0,0-1.082ZM21.37,62.371a1.61,1.61,0,0,1,1.587,1.355l0,.011c0,.02.005.041.008.061s0,.014,0,.02,0,.035,0,.053,0,.019,0,.028,0,.034,0,.051,0,.019,0,.028V64.3H19.763v-.326h0A1.609,1.609,0,0,1,21.37,62.371Zm-2.389,3.78h0v-.765h4.778v.765H18.981Zm-2.165,1.082h2.691L17.9,70.446H15.208Zm-3.184,0h1.975L14,70.446H12.024ZM4.709,63.978c0-.009,0-.018,0-.026s0-.035,0-.053,0-.018,0-.027,0-.036,0-.054,0-.013,0-.02,0-.041.008-.061l0-.011a1.607,1.607,0,0,1,3.195.252h0V64.3H4.709Zm-.782,2.051v-.643H8.706v.765H3.927Zm-.14,4.418h-1.3a.441.441,0,0,1-.441-.441V67.673a.441.441,0,0,1,.441-.441H5.394Zm.745,10.819h-1.7l1.7-6.239Zm3,0H5.614V71.528H7.528ZM6.971,70.446H5L6.6,67.232H8.579Zm2.816-3.215h2.634l-1.607,3.215H8.181Zm9.289,14.034H8.61V71.528H19.077Zm.541-10.819h-.51l1.607-3.215H22.69l-1.607,3.215Zm2.455,10.819H20.158V71.528h1.914Zm.219-10.819L23.9,67.232h1.3a.441.441,0,0,1,.441.441v2.333a.441.441,0,0,1-.441.441H22.292Zm.862,10.819V75.027l1.7,6.238Z" transform="translate(0.15 -61.139)" fill="#457ace" stroke="#fdf3e7" stroke-width="0.3"/>
</svg>
