<svg id="Page-1" xmlns="http://www.w3.org/2000/svg" width="24" height="24" viewBox="0 0 24 24">
  <g id="_015---Traffic-Warning" data-name="015---Traffic-Warning" transform="translate(0 0)">
    <path id="Shape" d="M18.2,45a1.2,1.2,0,1,0,1.2,1.2A1.2,1.2,0,0,0,18.2,45Zm0,1.6a.4.4,0,1,1,.4-.4A.4.4,0,0,1,18.2,46.6Z" transform="translate(-10.2 -27)" fill="#457ace"/>
    <path id="Shape-2" data-name="Shape" d="M38.2,45a1.2,1.2,0,1,0,1.2,1.2A1.2,1.2,0,0,0,38.2,45Zm0,1.6a.4.4,0,1,1,.4-.4A.4.4,0,0,1,38.2,46.6Z" transform="translate(-22.2 -27)" fill="#457ace"/>
    <path id="Shape-3" data-name="Shape" d="M28.6,45H25.4a.4.4,0,0,0,0,.8h3.2a.4.4,0,0,0,0-.8Z" transform="translate(-15 -27)" fill="#457ace"/>
    <path id="Shape-4" data-name="Shape" d="M28.6,49H25.4a.4.4,0,0,0,0,.8h3.2a.4.4,0,1,0,0-.8Z" transform="translate(-15 -29.4)" fill="#457ace"/>
    <path id="Shape-5" data-name="Shape" d="M5.2,41a1.2,1.2,0,1,0,1.2,1.2A1.2,1.2,0,0,0,5.2,41Zm0,1.6a.4.4,0,1,1,.4-.4A.4.4,0,0,1,5.2,42.6Z" transform="translate(-2.4 -24.6)" fill="#457ace"/>
    <path id="Shape-6" data-name="Shape" d="M22.3,31.624l-.934-2.8A1.206,1.206,0,0,0,20.233,28H20.22l-6.053-.008a1.2,1.2,0,0,0-1.127.821l-.26.783H11.22l-.26-.783a1.2,1.2,0,0,0-1.132-.821L3.785,28H3.772a1.207,1.207,0,0,0-1.135.821l-.935,2.8A2,2,0,0,0,0,33.594v2.8a.8.8,0,0,0,.8.8v1.2a.8.8,0,0,0,.8.8H3.2a.8.8,0,0,0,.8-.8v-1.2H5.2v.8a.8.8,0,0,0,.8.8v1.2a.8.8,0,0,0,.8.8H8.4a.8.8,0,0,0,.8-.8v-1.2h5.6v1.2a.8.8,0,0,0,.8.8h1.6a.8.8,0,0,0,.8-.8v-1.2a.8.8,0,0,0,.8-.8v-.8H20v1.2a.8.8,0,0,0,.8.8h1.6a.8.8,0,0,0,.8-.8v-1.2a.8.8,0,0,0,.8-.8v-2.8A2,2,0,0,0,22.3,31.624Zm-8.5-2.56a.4.4,0,0,1,.372-.274l6.053.008h0a.4.4,0,0,1,.376.274l.84,2.52h-4.89l-.4-1.181a1.2,1.2,0,0,0-1.134-.82h-1.4Zm2.445,4.13H7.755l.84-2.523a.4.4,0,0,1,.382-.274h0l6.044-.006a.4.4,0,0,1,.377.274ZM3.4,29.071a.4.4,0,0,1,.38-.273h0l6.042-.008a.4.4,0,0,1,.377.274l.177.53h-1.4a1.2,1.2,0,0,0-1.145.82l-.392,1.18H2.555Zm-.2,9.323H1.6v-1.2H3.2Zm.4-2H.8v-2.8a1.2,1.2,0,0,1,1.2-1.2H7.178l-.267.8H5.2a.4.4,0,1,0,0,.8h.41a1.982,1.982,0,0,0-.37.8H5.2a.4.4,0,0,0,0,.8v.8Zm4.8,3.6H6.8v-1.2H8.4Zm8.8,0H15.6v-1.2h1.6Zm.4-2H6v-2.8a1.2,1.2,0,0,1,1.2-1.2h9.6a1.2,1.2,0,0,1,1.2,1.2v2.8Zm4.8.4H20.8v-1.2h1.6Zm.8-2H18.8v-.8a.4.4,0,0,0,0-.8h-.04a1.982,1.982,0,0,0-.37-.8h.41a.4.4,0,1,0,0-.8H17.088l-.267-.8H22a1.2,1.2,0,0,1,1.2,1.2Z" transform="translate(0 -16.794)" fill="#457ace"/>
    <path id="Shape-7" data-name="Shape" d="M51.2,41a1.2,1.2,0,1,0,1.2,1.2A1.2,1.2,0,0,0,51.2,41Zm0,1.6a.4.4,0,1,1,.4-.4A.4.4,0,0,1,51.2,42.6Z" transform="translate(-30 -24.6)" fill="#457ace"/>
    <path id="Shape-8" data-name="Shape" d="M15.244,10.4H25.559a1.222,1.222,0,0,0,1.088-.653,1.268,1.268,0,0,0-.054-1.3L21.436.563a1.232,1.232,0,0,0-2.069,0L14.209,8.448a1.268,1.268,0,0,0-.054,1.3A1.222,1.222,0,0,0,15.244,10.4Zm-.365-1.514L20.036,1a.432.432,0,0,1,.73,0l5.157,7.886a.463.463,0,0,1,.02.48.432.432,0,0,1-.384.233H15.244a.432.432,0,0,1-.384-.233A.463.463,0,0,1,14.879,8.886Z" transform="translate(-8.401 0)" fill="#457ace"/>
    <path id="Shape-9" data-name="Shape" d="M29.4,11a.4.4,0,0,0,.4-.4V7.4a.4.4,0,0,0-.8,0v3.2A.4.4,0,0,0,29.4,11Z" transform="translate(-17.4 -4.2)" fill="#457ace"/>
    <circle id="Oval" cx="0.571" cy="0.571" r="0.571" transform="translate(11.429 7.429)" fill="#457ace"/>
  </g>
</svg>
