<svg id="automobile" xmlns="http://www.w3.org/2000/svg" width="24.989" height="25.058" viewBox="0 0 24.989 25.058">
  <path id="Path_119643" data-name="Path 119643" d="M299.807,4.541h-.326V3.489a1.8,1.8,0,0,0-1.8-1.8H295.6a1.8,1.8,0,0,0-1.8,1.8V4.541h-.308a.721.721,0,0,0-.721.721v.267a.722.722,0,0,0,.721.721h.308v4.391a1.354,1.354,0,0,0,1.353,1.353h2.977a1.354,1.354,0,0,0,1.353-1.353V6.25h.326a.722.722,0,0,0,.721-.721V5.262A.722.722,0,0,0,299.807,4.541Zm-1.257-1.676a.447.447,0,0,1-.578-.4A1.072,1.072,0,0,1,298.549,2.865Zm-3.137-.428h0a.447.447,0,0,1-.659.395A1.069,1.069,0,0,1,295.413,2.436ZM293.5,5.521V5.27h.3v.251Zm4.63,5.744H295.15a.624.624,0,0,1-.624-.624V3.529a1.176,1.176,0,0,0,1.615-1.092c0-.006,0-.011,0-.017h1.1c0,.006,0,.011,0,.017a1.174,1.174,0,0,0,1.51,1.128v7.076A.624.624,0,0,1,298.128,11.265ZM299.8,5.521h-.318V5.27h.318Zm0,0" transform="translate(-278.441 -1.609)" fill="#457ace"/>
  <path id="Path_119644" data-name="Path 119644" d="M64.85,72.932h-.326V71.88a1.8,1.8,0,0,0-1.8-1.8H60.639a1.8,1.8,0,0,0-1.8,1.8v1.052h-.308a.722.722,0,0,0-.721.721v.267a.721.721,0,0,0,.721.721h.308v4.392a1.354,1.354,0,0,0,1.353,1.353h2.977a1.354,1.354,0,0,0,1.353-1.353V74.64h.326a.721.721,0,0,0,.721-.721v-.267A.722.722,0,0,0,64.85,72.932Zm-1.241-1.653a.438.438,0,0,1-.148.026.448.448,0,0,1-.448-.448s0,0,0-.006A1.073,1.073,0,0,1,63.609,71.278Zm-3.155-.451c0,.01,0,.02,0,.029a.446.446,0,0,1-.674.385A1.07,1.07,0,0,1,60.454,70.827Zm-1.912,3.084V73.66h.3v.251Zm4.63,5.744H60.193a.624.624,0,0,1-.624-.624V71.949a1.176,1.176,0,0,0,1.615-1.092c0-.015,0-.03,0-.046h1.1c0,.015,0,.03,0,.046a1.175,1.175,0,0,0,1.51,1.128v7.047A.624.624,0,0,1,63.171,79.655Zm1.671-5.744h-.318V73.66h.318Zm0,0" transform="translate(-54.983 -66.652)" fill="#457ace"/>
  <path id="Path_119645" data-name="Path 119645" d="M334.965,49.059h-1.89a1,1,0,0,0-1,1V51.5a.462.462,0,0,0,.462.462H335.5a.462.462,0,0,0,.462-.462V50.06A1,1,0,0,0,334.965,49.059Zm.272,2.171H332.8V50.06a.273.273,0,0,1,.272-.272h1.89a.273.273,0,0,1,.272.272Zm0,0" transform="translate(-315.822 -46.658)" fill="#457ace"/>
  <path id="Path_119646" data-name="Path 119646" d="M335.5,144.586h-2.969a.462.462,0,0,0-.462.462v.344a1.164,1.164,0,0,0,1.163,1.163H334.8a1.164,1.164,0,0,0,1.163-1.163v-.344A.462.462,0,0,0,335.5,144.586Zm-.267.806a.435.435,0,0,1-.434.434h-1.566a.434.434,0,0,1-.434-.434v-.077h2.434Zm0,0" transform="translate(-315.822 -137.51)" fill="#457ace"/>
  <path id="Path_119647" data-name="Path 119647" d="M299.807,234.084h-.326v-1.052a1.8,1.8,0,0,0-1.8-1.8H295.6a1.8,1.8,0,0,0-1.8,1.8v1.052h-.308a.722.722,0,0,0-.721.721v.267a.722.722,0,0,0,.721.721h.308v4.391a1.354,1.354,0,0,0,1.353,1.353h2.977a1.354,1.354,0,0,0,1.353-1.353V238.1a.364.364,0,0,0-.729,0v2.089a.624.624,0,0,1-.624.624H295.15a.624.624,0,0,1-.624-.624v-7.147a1.174,1.174,0,0,0,1.614-1.073h1.1a1.178,1.178,0,0,0,1.176,1.159,1.165,1.165,0,0,0,.334-.049v5.335a.364.364,0,0,0,.729,0v-2.615h.326a.721.721,0,0,0,.721-.721V234.8A.722.722,0,0,0,299.807,234.084Zm-6.308.98v-.251h.3v.251Zm1.467-2.67a.444.444,0,0,1-.191-.044,1.07,1.07,0,0,1,.637-.37A.448.448,0,0,1,294.965,232.393Zm3.009-.389a1.072,1.072,0,0,1,.553.375.446.446,0,0,1-.553-.375Zm1.824,3.059h-.318v-.251h.318Zm0,0" transform="translate(-278.441 -219.917)" fill="#457ace"/>
  <path id="Path_119648" data-name="Path 119648" d="M64.85,302.475h-.326v-1.052a1.8,1.8,0,0,0-1.8-1.8H60.639a1.8,1.8,0,0,0-1.8,1.8v1.052h-.308a.722.722,0,0,0-.721.721v.267a.721.721,0,0,0,.721.721h.308v4.392a1.354,1.354,0,0,0,1.353,1.353h2.977a1.354,1.354,0,0,0,1.353-1.353v-4.392h.326a.721.721,0,0,0,.721-.721V303.2A.722.722,0,0,0,64.85,302.475ZM63.6,300.813a.441.441,0,0,1-.142.024.448.448,0,0,1-.448-.443A1.073,1.073,0,0,1,63.6,300.813Zm-3.149-.443c0,.006,0,.012,0,.019a.447.447,0,0,1-.669.389A1.069,1.069,0,0,1,60.454,300.37Zm-1.913,3.084V303.2h.3v.251Zm4.63,5.744H60.193a.624.624,0,0,1-.624-.624v-7.094a1.176,1.176,0,0,0,1.615-1.092c0-.012,0-.024,0-.035h1.1c0,.012,0,.023,0,.035a1.175,1.175,0,0,0,1.51,1.128v7.058A.624.624,0,0,1,63.171,309.2Zm1.671-5.744h-.318V303.2h.318Zm0,0" transform="translate(-54.983 -284.961)" fill="#457ace"/>
  <path id="Path_119649" data-name="Path 119649" d="M100,346.992H98.115a1,1,0,0,0-1,1v1.436a.462.462,0,0,0,.462.462h2.969a.462.462,0,0,0,.462-.462v-1.436A1,1,0,0,0,100,346.992Zm.273,2.171H97.842v-1.169a.273.273,0,0,1,.273-.272H100a.273.273,0,0,1,.272.272Zm0,0" transform="translate(-92.36 -330.01)" fill="#457ace"/>
  <path id="Path_119650" data-name="Path 119650" d="M100.544,442.52H97.575a.462.462,0,0,0-.462.462v.345a1.164,1.164,0,0,0,1.163,1.163h1.566a1.164,1.164,0,0,0,1.163-1.163v-.345A.462.462,0,0,0,100.544,442.52Zm-.267.806a.435.435,0,0,1-.434.434H98.276a.435.435,0,0,1-.434-.434v-.077h2.434Zm0,0" transform="translate(-92.36 -420.862)" fill="#457ace"/>
  <path id="Path_119651" data-name="Path 119651" d="M100,117.449H98.115a1,1,0,0,0-1,1v1.437a.462.462,0,0,0,.462.462h2.969a.462.462,0,0,0,.462-.462v-1.437A1,1,0,0,0,100,117.449Zm.273,2.171H97.842v-1.169a.273.273,0,0,1,.273-.273H100a.273.273,0,0,1,.272.273Zm0,0" transform="translate(-92.36 -111.701)" fill="#457ace"/>
  <path id="Path_119652" data-name="Path 119652" d="M100.544,212.973H97.575a.462.462,0,0,0-.462.462v.345a1.165,1.165,0,0,0,1.163,1.163h1.566a1.164,1.164,0,0,0,1.163-1.163v-.345A.462.462,0,0,0,100.544,212.973Zm-.267.806a.435.435,0,0,1-.434.434H98.276a.435.435,0,0,1-.434-.434V213.7h2.434Zm0,0" transform="translate(-92.36 -202.549)" fill="#457ace"/>
  <path id="Path_119653" data-name="Path 119653" d="M335.966,279.607a1,1,0,0,0-1-1h-1.89a1,1,0,0,0-1,1v1.436a.462.462,0,0,0,.462.462H335.5a.462.462,0,0,0,.462-.462Zm-.729,1.169H332.8v-1.169a.273.273,0,0,1,.272-.273h1.89a.273.273,0,0,1,.272.273Zm0,0" transform="translate(-315.822 -264.97)" fill="#457ace"/>
  <path id="Path_119654" data-name="Path 119654" d="M335.5,374.129h-2.969a.462.462,0,0,0-.462.462v.345a1.164,1.164,0,0,0,1.163,1.163H334.8a1.165,1.165,0,0,0,1.163-1.163v-.345A.462.462,0,0,0,335.5,374.129Zm-.267.806a.435.435,0,0,1-.434.434h-1.566a.435.435,0,0,1-.434-.434v-.077h2.434Zm0,0" transform="translate(-315.822 -355.818)" fill="#457ace"/>
  <path id="Path_119655" data-name="Path 119655" d="M469.431.039A1.034,1.034,0,0,0,468.4,1.072V24.063a1.033,1.033,0,1,0,2.065,0V1.072A1.034,1.034,0,0,0,469.431.039Zm.3,24.023a.3.3,0,1,1-.607,0V1.072a.3.3,0,1,1,.607,0Zm0,0" transform="translate(-445.474 -0.037)" fill="#457ace"/>
  <path id="Path_119656" data-name="Path 119656" d="M1.033.039A1.034,1.034,0,0,0,0,1.072V24.063a1.033,1.033,0,1,0,2.065,0V11.733a.364.364,0,0,0-.729,0v12.33a.3.3,0,1,1-.607,0V1.072a.3.3,0,1,1,.607,0V12.337a.364.364,0,0,0,.729,0V1.072A1.034,1.034,0,0,0,1.033.039Zm0,0" transform="translate(0 -0.037)" fill="#457ace"/>
  <path id="Path_119657" data-name="Path 119657" d="M247.391,376.081a.364.364,0,0,1-.364-.364v-1.455a.364.364,0,1,1,.727,0v1.455A.364.364,0,0,1,247.391,376.081Zm0,0" transform="translate(-234.937 -355.599)" fill="#457ace"/>
  <path id="Path_119658" data-name="Path 119658" d="M247.391,282.608a.364.364,0,0,1-.364-.364v-1.455a.364.364,0,0,1,.727,0v1.455A.364.364,0,0,1,247.391,282.608Zm0,0" transform="translate(-234.937 -266.701)" fill="#457ace"/>
  <path id="Path_119659" data-name="Path 119659" d="M247.391,469.557a.364.364,0,0,1-.364-.364v-1.455a.364.364,0,0,1,.727,0v1.455A.364.364,0,0,1,247.391,469.557Zm0,0" transform="translate(-234.937 -444.501)" fill="#457ace"/>
  <path id="Path_119660" data-name="Path 119660" d="M247.391,189.131a.364.364,0,0,1-.364-.364v-1.455a.364.364,0,0,1,.727,0v1.455A.364.364,0,0,1,247.391,189.131Zm0,0" transform="translate(-234.937 -177.8)" fill="#457ace"/>
  <path id="Path_119661" data-name="Path 119661" d="M247.391,95.658a.364.364,0,0,1-.364-.364V93.84a.364.364,0,0,1,.727,0v1.455A.364.364,0,0,1,247.391,95.658Zm0,0" transform="translate(-234.937 -88.902)" fill="#457ace"/>
  <path id="Path_119662" data-name="Path 119662" d="M247.391,2.182a.364.364,0,0,1-.364-.364V.364a.364.364,0,0,1,.727,0V1.818A.364.364,0,0,1,247.391,2.182Zm0,0" transform="translate(-234.937)" fill="#457ace"/>
</svg>
