<svg xmlns="http://www.w3.org/2000/svg" width="28.578" height="28.578" viewBox="0 0 28.578 28.578">
  <g id="outline" transform="translate(0.25 0.306)">
    <path id="Path_119450" data-name="Path 119450" d="M244.667,90.819a.667.667,0,0,0,.667-.667V88.817a.667.667,0,0,0-1.334,0v1.334A.667.667,0,0,0,244.667,90.819Z" transform="translate(-230.656 -83.471)" fill="#fff" stroke="#1d4593" stroke-width="0.5"/>
    <path id="Path_119451" data-name="Path 119451" d="M69.334,228h-.667a.667.667,0,1,0,0,1.334h.667a.667.667,0,1,0,0-1.334Z" transform="translate(-64.442 -215.546)" fill="#fff" stroke="#1d4593" stroke-width="0.5"/>
    <path id="Path_119452" data-name="Path 119452" d="M120.787,228h-.82a.667.667,0,1,0,0,1.334h.819a.667.667,0,1,0,0-1.334Z" transform="translate(-112.889 -215.546)" fill="#fff" stroke="#1d4593" stroke-width="0.5"/>
    <path id="Path_119453" data-name="Path 119453" d="M175.013,228.176a3.737,3.737,0,0,0-.981-.158.667.667,0,1,0-.033,1.334,2.4,2.4,0,0,1,.631.1.667.667,0,1,0,.384-1.278Z" transform="translate(-163.932 -215.562)" fill="#fff" stroke="#1d4593" stroke-width="0.5"/>
    <path id="Path_119454" data-name="Path 119454" d="M221.877,252.818a5.857,5.857,0,0,0-.559-.736.667.667,0,0,0-.995.89,4.528,4.528,0,0,1,.431.568.667.667,0,1,0,1.122-.722Z" transform="translate(-208.135 -238.078)" fill="#fff" stroke="#1d4593" stroke-width="0.5"/>
    <path id="Path_119455" data-name="Path 119455" d="M31.827,23.322l-5.338-5.338a.667.667,0,0,0-1.139.472v2l-3.781-.02c-.074,0-.149,0-.222,0V10.672h2a.667.667,0,0,0,.472-1.139L18.483,4.2a.667.667,0,0,0-.944,0L12.2,9.534a.667.667,0,0,0,.472,1.139h2V13.79c-.075,0-.15,0-.226,0l-3.777.02v-2a.667.667,0,0,0-1.139-.472L4.2,16.674a.667.667,0,0,0,0,.944l5.338,5.338a.667.667,0,0,0,1.139-.472V20.478l3.781-.02a.222.222,0,0,1,.222.222V31.356a.667.667,0,0,0,1.334,0V27.329a5.566,5.566,0,0,1,5.556-5.56l4.448.024h0a.667.667,0,0,0,.667-.667V20.067l3.727,3.727-3.727,3.727V26.463a.667.667,0,0,0-.664-.667l-4.452-.024a1.559,1.559,0,0,0-1.557,1.557v4.027a.667.667,0,0,0,1.334,0V27.329a.222.222,0,0,1,.219-.222l3.784.02v2.005a.667.667,0,0,0,1.139.472l5.338-5.338a.667.667,0,0,0,0-.944ZM14.284,9.338l3.727-3.727,3.727,3.727H20.68a.667.667,0,0,0-.667.667v6.6q-.174-.237-.369-.461a6.935,6.935,0,0,0-.965-.911v-1a.667.667,0,0,0-1.334,0v.183a6.856,6.856,0,0,0-1.334-.458V10.005a.667.667,0,0,0-.667-.667ZM16.01,23.257V20.68a1.559,1.559,0,0,0-1.56-1.557L10,19.148a.667.667,0,0,0-.664.667v1.058L5.611,17.146l3.727-3.727v1.058a.667.667,0,0,0,.671.667s4.978,0,5.239.033a5.585,5.585,0,0,1,4.764,5.434,6.837,6.837,0,0,0-1.383.482c0-.023-.006-.045-.009-.068a.667.667,0,1,0-1.319.2,3.725,3.725,0,0,1,.044.563.668.668,0,0,0,.006.088,6.954,6.954,0,0,0-1.341,1.377Z" transform="translate(-4 -4.001)" fill="#fff" stroke="#1d4593" stroke-width="0.5"/>
    <path id="Path_119456" data-name="Path 119456" d="M244.667,464a.667.667,0,0,0-.667.667v.667a.667.667,0,1,0,1.334,0v-.667A.667.667,0,0,0,244.667,464Z" transform="translate(-230.656 -438.424)" fill="#fff" stroke="#1d4593" stroke-width="0.5"/>
    <path id="Path_119457" data-name="Path 119457" d="M245.21,397.574a.667.667,0,0,0-.842.426,4.662,4.662,0,0,0-.222,1.158.667.667,0,0,0,.624.708h.043a.667.667,0,0,0,.665-.625,3.327,3.327,0,0,1,.159-.827A.667.667,0,0,0,245.21,397.574Z" transform="translate(-230.793 -375.66)" fill="#fff" stroke="#1d4593" stroke-width="0.5"/>
    <path id="Path_119458" data-name="Path 119458" d="M342.837,349.334a.667.667,0,0,0,0-1.334h-1.013a.667.667,0,0,0,0,1.334Z" transform="translate(-322.41 -328.874)" fill="#fff" stroke="#1d4593" stroke-width="0.5"/>
    <path id="Path_119459" data-name="Path 119459" d="M278.405,353.061a.667.667,0,0,0-.427-1.264,4.648,4.648,0,0,0-1.061.516.667.667,0,0,0,.731,1.116A3.321,3.321,0,0,1,278.405,353.061Z" transform="translate(-261.458 -332.426)" fill="#fff" stroke="#1d4593" stroke-width="0.5"/>
    <path id="Path_119460" data-name="Path 119460" d="M408.667,349.334h.667a.667.667,0,1,0,0-1.334h-.667a.667.667,0,1,0,0,1.334Z" transform="translate(-385.538 -328.874)" fill="#fff" stroke="#1d4593" stroke-width="0.5"/>
  </g>
</svg>
