<svg xmlns="http://www.w3.org/2000/svg" width="33.91" height="32.925" viewBox="0 0 33.91 32.925">
  <g id="social-care-2" transform="translate(0.4 0.4)">
    <g id="Group_44990" data-name="Group 44990" transform="translate(0 5.495)">
      <g id="Group_44989" data-name="Group 44989">
        <path id="Path_119479" data-name="Path 119479" d="M122.828,68.009l-1.811-.433v-.325a4.552,4.552,0,0,0,1.948-3.732V61.166a4.551,4.551,0,0,0-7.51-3.462,5.942,5.942,0,0,0-11.013.008,4.551,4.551,0,0,0-7.519,3.453V63.52a4.552,4.552,0,0,0,1.948,3.732v.325l-1.811.433a4.767,4.767,0,0,0-3.672,4.652v1.9a1.018,1.018,0,0,0,1.018,1.018h4.676c-.007.123-.012.248-.012.373v3.659a1.018,1.018,0,0,0,1.018,1.018h16.483a1.018,1.018,0,0,0,0-2.035H105.155v-2.1a1.018,1.018,0,1,0-2.035,0v2.1h-2.013V75.952a4.214,4.214,0,0,1,3.242-4.11l2.793-.669,1.869,4.252a1.018,1.018,0,0,0,.931.608h0a1.018,1.018,0,0,0,.932-.608l1.867-4.246,2.784.665a4.213,4.213,0,0,1,3.245,4.111v2.639h-2.013v-2.1a1.018,1.018,0,1,0-2.035,0v2.1h-1.153a1.018,1.018,0,0,0,0,2.035h6.219a1.018,1.018,0,0,0,1.018-1.018V75.955c0-.126-.005-.251-.012-.376h4.69a1.018,1.018,0,0,0,1.018-1.018v-1.9A4.767,4.767,0,0,0,122.828,68.009Zm-4.417-9.362A2.523,2.523,0,0,1,120.925,61H119.51a7.418,7.418,0,0,1-3.412-.832A2.523,2.523,0,0,1,118.411,58.647Zm-2.519,4.725c0-.05,0-.1,0-.149v-.906a9.453,9.453,0,0,0,3.615.719h1.42v.485a2.519,2.519,0,1,1-5.039,0Zm-9.849-3.427h0a3.909,3.909,0,0,1,7.769-.621L112.1,58.316a1.017,1.017,0,0,0-1.3.224,4.385,4.385,0,0,1-3.369,1.572h-1.391Zm-4.564-1.3a2.523,2.523,0,0,1,2.313,1.521A7.418,7.418,0,0,1,100.38,61H98.965A2.523,2.523,0,0,1,101.479,58.647Zm-2.519,4.388h1.42A9.454,9.454,0,0,0,104,62.315V63.52a2.519,2.519,0,0,1-5.039,0Zm4.916,6.827a6.241,6.241,0,0,0-4.325,3.682H95.425v-.883a2.739,2.739,0,0,1,2.109-2.672l2.592-.619a1.018,1.018,0,0,0,.781-.99v-.342a4.418,4.418,0,0,0,1.138,0v.29c0,.015,0,.03,0,.045a1.019,1.019,0,0,0,.827,1l1.518.364Zm2.839-1.58a4.777,4.777,0,0,0-.815-.275l-1.818-.436v-.317a4.592,4.592,0,0,0,.882-.806,5.991,5.991,0,0,0,1.751,1.755Zm4.42,1.5-1.191,2.709-1.194-2.715v-.726a5.964,5.964,0,0,0,2.385,0Zm-1.182-2.646a3.913,3.913,0,0,1-3.909-3.909V62.148h1.391a6.412,6.412,0,0,0,4.324-1.671l2.1,1.233v1.661A3.913,3.913,0,0,1,109.951,67.132Zm3.218,1.154v-.069a5.989,5.989,0,0,0,1.765-1.759,4.59,4.59,0,0,0,.875.8v.317l-1.818.436A4.792,4.792,0,0,0,113.169,68.286Zm11.3,5.258h-4.139A6.24,6.24,0,0,0,116,69.864l-.511-.122,1.526-.366a1.019,1.019,0,0,0,.831-1c0-.008,0-.016,0-.024v-.312a4.418,4.418,0,0,0,1.138,0v.342a1.018,1.018,0,0,0,.781.99l2.592.619a2.739,2.739,0,0,1,2.109,2.672Z" transform="translate(-93.39 -54)" fill="#fff" stroke="#ee701f" stroke-width="0.8"/>
      </g>
    </g>
    <g id="Group_44994" data-name="Group 44994" transform="translate(15.53)">
      <g id="Group_44993" data-name="Group 44993">
        <path id="Path_119481" data-name="Path 119481" d="M247.011,0a1.018,1.018,0,0,0-1.018,1.018V2.54a1.018,1.018,0,1,0,2.035,0V1.018A1.018,1.018,0,0,0,247.011,0Z" transform="translate(-245.993)" fill="#fff" stroke="#ee701f" stroke-width="0.8"/>
      </g>
    </g>
    <g id="Group_44996" data-name="Group 44996" transform="translate(9.995 1.955)">
      <g id="Group_44995" data-name="Group 44995">
        <path id="Path_119482" data-name="Path 119482" d="M194.4,20.577l-1.068-1.067a1.018,1.018,0,1,0-1.439,1.44l1.068,1.067a1.018,1.018,0,1,0,1.438-1.44Z" transform="translate(-191.599 -19.213)" fill="#fff" stroke="#ee701f" stroke-width="0.8"/>
      </g>
    </g>
    <g id="Group_44998" data-name="Group 44998" transform="translate(19.983 1.981)">
      <g id="Group_44997" data-name="Group 44997">
        <path id="Path_119483" data-name="Path 119483" d="M292.542,19.767a1.018,1.018,0,0,0-1.439,0l-1.059,1.06a1.018,1.018,0,1,0,1.44,1.438l1.059-1.06A1.018,1.018,0,0,0,292.542,19.767Z" transform="translate(-289.746 -19.469)" fill="#fff" stroke="#ee701f" stroke-width="0.8"/>
      </g>
    </g>
    <path id="Path_119484" data-name="Path 119484" d="M0-.025H9.493V1.558H0Z" transform="translate(16.813 30.342)" fill="#fff"/>
  </g>
</svg>
