<svg xmlns="http://www.w3.org/2000/svg" width="26.197" height="28.138" viewBox="0 0 26.197 28.138">
  <g id="RMr3vo.tif" transform="translate(-779.639 -106)">
    <g id="Group_47861" data-name="Group 47861" transform="translate(779.639 106)">
      <path id="Path_119602" data-name="Path 119602" d="M793.948,134.138a4.221,4.221,0,0,1-2.132-1.769,1.686,1.686,0,0,1,.3-2.264c.3-.276.616-.533.989-.854h-.37q-2.143,0-4.286,0a1.926,1.926,0,0,1-1.879-2.712,6.608,6.608,0,0,1,1.5-2.335c-.068-.045-.123-.088-.184-.12a9.176,9.176,0,0,1-4.254-4.5c-.08-.181-.192-.179-.341-.181a3.726,3.726,0,0,1-3.517-2.624,3.574,3.574,0,0,1,2.813-4.457.567.567,0,0,0,.459-.342c.3-.568.668-1.1,1.017-1.667-.188-.1-.421-.219-.656-.336a.817.817,0,0,1-.5-.811.834.834,0,0,1,.544-.757c.424-.195,2.985-1.391,3.406-1.59.287-.136.522-.073.63.162s.011.43-.266.574c-.219.114-2.585,1.21-2.807,1.318s-.443.211-.715.34c.416.194.782.376,1.156.537.508.219.565.5.169.876a4.915,4.915,0,0,0-1.486,2.421c-.008.035-.011.07-.021.134a2.7,2.7,0,0,0,1.191-.066,8,8,0,0,0,2.382-1.1c.637-.4,1.269-.8,1.9-1.2a.453.453,0,0,1,.581-.03c.187.15.157.341.109.551a10.452,10.452,0,0,0-.19,1.078c-.034.285.088.354.344.212a7.709,7.709,0,0,0,2.346-1.958.7.7,0,0,1,.56-.342.67.67,0,0,1,.544.32,7.5,7.5,0,0,0,2.292,1.935,1.313,1.313,0,0,0,.348.083,1.067,1.067,0,0,0,.06-.329c-.048-.343-.111-.685-.189-1.023a.461.461,0,0,1,.114-.525.439.439,0,0,1,.558.013c.829.52,1.65,1.054,2.493,1.552a5.411,5.411,0,0,0,2.545.865c.144.006.289,0,.5,0-.1-.308-.166-.571-.269-.817a5.362,5.362,0,0,0-1.29-1.792c-.374-.357-.316-.634.161-.841.384-.167.76-.353,1.184-.552l-.832-.4a25.19,25.19,0,0,0-3.767-1.64,5.553,5.553,0,0,0-3.506-.125,2.685,2.685,0,0,1-1.888,0,5.555,5.555,0,0,0-3.533.135c-.427.132-.842.3-1.261.461-.3.11-.535.036-.623-.2s.02-.444.323-.57a10.452,10.452,0,0,1,3.029-.837.4.4,0,0,0,.1-.038h1.1c.554.144,1.107.292,1.663.427a.71.71,0,0,0,.326,0c.548-.135,1.093-.28,1.639-.422h1.1a.644.644,0,0,0,.13.041,8.168,8.168,0,0,1,2.514.649c1.288.566,2.563,1.164,3.83,1.776a.826.826,0,0,1,.019,1.473c-.25.147-.515.268-.727.376.344.555.7,1.086,1.005,1.642a.613.613,0,0,0,.471.368,3.574,3.574,0,0,1,2.871,4.217,3.7,3.7,0,0,1-3.575,2.861c-.164,0-.279.012-.358.2a8.573,8.573,0,0,1-1.81,2.695,1.334,1.334,0,0,0-.1.125,4.06,4.06,0,0,1,.623.414q1.163,1.129,2.292,2.292a1.164,1.164,0,0,1,.326.587,1.97,1.97,0,0,0,.369.866,3.713,3.713,0,0,1,.209.354,7.659,7.659,0,0,1,.817,5.361,1.2,1.2,0,0,1-1.421,1.01c-.309-.055-.478-.24-.447-.489s.224-.371.555-.333.431-.043.5-.361a6.6,6.6,0,0,0-.057-3.1,6.777,6.777,0,0,0-.862-2.01l-1.652,1.661c.155.231.341.472.488.734.3.533,1.468,2.722,1.742,3.269a.379.379,0,0,1-.2.527.387.387,0,0,1-.522-.162c-.046-.067-.07-.149-.112-.219-.417-.7-1.714-3.043-2.138-3.737a.4.4,0,0,0-.2-.162c-.2-.064-.4-.1-.617-.155-.056.064-.122.139-.187.215-1.165,1.377-2.338,2.747-3.491,4.134a2.707,2.707,0,0,1-1.382,1.015Zm-8.2-12.739c.316-.1.594-.22.884-.283a12.876,12.876,0,0,1,1.457-.247,2.106,2.106,0,0,1,.91.071,1.486,1.486,0,0,1,.9,2.012,8.792,8.792,0,0,1-.447.923,9.921,9.921,0,0,0,5.467.323c-.114-.065-.151-.091-.192-.108l-1.619-.677a1.2,1.2,0,0,1,.18-2.287,7.242,7.242,0,0,1,3.85.143c.655.214,1.282.512,1.952.784a7.835,7.835,0,0,0,2.554-4.837,2.142,2.142,0,0,1-1.6-.235,2.066,2.066,0,0,1-.824-2.519.9.9,0,0,0-.45-1.266q-.3-.165-.593-.344c-.449-.277-.894-.558-1.382-.863.01.163.013.278.024.393a.976.976,0,0,1-.44.972.929.929,0,0,1-1.086.014c-.591-.4-1.175-.805-1.742-1.235-.3-.229-.564-.513-.853-.781-.04.043-.1.109-.162.176a8.777,8.777,0,0,1-2.366,1.854,1.008,1.008,0,0,1-1.517-.988c.01-.121.012-.243.02-.409-.162.1-.275.176-.391.246-.579.35-1.149.718-1.741,1.045a6.189,6.189,0,0,1-2.277.759c-.078.009-.182.132-.207.222a7.4,7.4,0,0,0-.164,3.371A7.6,7.6,0,0,0,785.747,121.4Zm11.145,4.656a2.327,2.327,0,0,0-.2-.708,2.439,2.439,0,0,0-.58-.451c-.007-.005-.014-.015-.022-.016a.872.872,0,0,0-.327-.041,10.659,10.659,0,0,1-6.66-.219.3.3,0,0,0-.36.08,5.719,5.719,0,0,0-1.437,2.244,1.088,1.088,0,0,0,1.046,1.482q2.774.008,5.548,0a.5.5,0,0,0,.3-.093C795.1,127.573,796,126.809,796.892,126.055Zm.572.616a.187.187,0,0,0-.052.027c-1.573,1.33-3.149,2.657-4.716,3.995a.939.939,0,0,0-.065,1.413c.268.288.553.561.833.838a.981.981,0,0,0,1.587-.063q1.368-1.613,2.733-3.229c.412-.487.823-.976,1.22-1.447Zm2.856,1.476a1.932,1.932,0,0,0,.358-.218q.776-.756,1.535-1.53a.456.456,0,0,0,.008-.721q-1.109-1.122-2.23-2.232a.456.456,0,0,0-.721.005q-.772.761-1.532,1.533a.457.457,0,0,0-.011.722q1.11,1.121,2.234,2.228A1.82,1.82,0,0,0,800.32,128.147Zm2.162-12.853c.24,0,.468-.012.695,0a.418.418,0,0,1,.421.446.413.413,0,0,1-.459.373c-.2,0-.4,0-.594,0-.03.434-.039.837-.089,1.234s-.142.8-.216,1.2A2.819,2.819,0,0,0,805,116.109a2.717,2.717,0,0,0-2.2-2.939.963.963,0,0,1-.572.808Zm-19.587.823c-.158,0-.332,0-.505,0-.319,0-.512-.147-.514-.4s.183-.41.479-.423c.216-.01.432,0,.641,0l.253-1.313a.959.959,0,0,1-.572-.829,2.743,2.743,0,0,0-2.152,3.231c.28,1.246,1.688,2.367,2.668,2.16Zm15.77,6.724a6.909,6.909,0,0,0-5.077-.935c-.206.041-.4.1-.42.354s.166.346.367.438c.821.375,1.644.746,2.45,1.15A10.744,10.744,0,0,1,797,124.5Zm1.528-9a6.7,6.7,0,0,1-.2.9,1.217,1.217,0,0,0,.266,1.34,1.179,1.179,0,0,0,1.286.289.261.261,0,0,0,.145-.2q-.121-.988-.279-1.972a.261.261,0,0,0-.17-.165C800.882,113.957,800.523,113.9,800.192,113.842Zm-11.54,9.7a6.452,6.452,0,0,0,.468-.885c.226-.645-.252-1.131-.923-.987-.472.1-.95.169-1.425.255-.119.022-.235.058-.4.1A9,9,0,0,0,788.652,123.546Z" transform="translate(-779.639 -106)" fill="#f49224"/>
      <path id="Path_119603" data-name="Path 119603" d="M986.032,309.995a2.217,2.217,0,0,1,1.757,1,.4.4,0,0,1-.069.565.431.431,0,0,1-.589-.065,3.018,3.018,0,0,0-.79-.6,1.154,1.154,0,0,0-1.338.44c-.3.333-.517.4-.727.21s-.182-.426.114-.762A2.17,2.17,0,0,1,986.032,309.995Z" transform="translate(-972.9 -298.784)" fill="#f49224"/>
      <path id="Path_119604" data-name="Path 119604" d="M930.335,291.662a1.623,1.623,0,0,1-1.2-.518.412.412,0,1,1,.566-.6.819.819,0,0,0,1.261,0,.412.412,0,1,1,.572.589A1.62,1.62,0,0,1,930.335,291.662Z" transform="translate(-920.774 -280.28)" fill="#f49224"/>
      <path id="Path_119605" data-name="Path 119605" d="M1059.535,291.64a1.6,1.6,0,0,1-1.2-.528.4.4,0,0,1-.025-.588.409.409,0,0,1,.59-.006.825.825,0,0,0,1.282,0,.4.4,0,0,1,.59,0,.416.416,0,0,1-.02.592A1.62,1.62,0,0,1,1059.535,291.64Z" transform="translate(-1042.88 -280.258)" fill="#f49224"/>
    </g>
  </g>
</svg>
