<svg xmlns="http://www.w3.org/2000/svg" width="29.176" height="22.414" viewBox="0 0 29.176 22.414">
  <path id="increase" d="M27.544,66.542H24.219a.831.831,0,1,0,0,1.663h1.318l-4.051,4.051a5.84,5.84,0,0,0-2.994-3.941,4.157,4.157,0,1,0-5.4,0,5.846,5.846,0,0,0-2.9,3.548q-.156-.179-.328-.346a5.824,5.824,0,0,0-1.355-.986,4.157,4.157,0,1,0-5.4,0A5.825,5.825,0,0,0,0,75.687v6.1a.831.831,0,0,0,.831.831H7.593a.831.831,0,0,0,.588-.244l6.063-6.063,2.183,2.183a.831.831,0,0,0,1.176,0l9.111-9.111V70.7a.831.831,0,0,0,1.663,0V67.373A.831.831,0,0,0,27.544,66.542ZM13.3,65.157a2.494,2.494,0,1,1,2.494,2.494A2.5,2.5,0,0,1,13.3,65.157ZM3.325,67.373a2.494,2.494,0,1,1,2.494,2.494A2.5,2.5,0,0,1,3.325,67.373ZM7.248,80.952H1.663V75.687a4.154,4.154,0,0,1,8.306-.124.853.853,0,0,0,.007.086v2.575Zm9.766-4.224-2.183-2.183a.831.831,0,0,0-1.176,0l-2.017,2.017V73.47a4.157,4.157,0,0,1,8.313,0v.321Z" transform="translate(0.4 -60.6)" fill="#f49224" stroke="#fdf3e7" stroke-width="0.8"/>
</svg>
