<svg xmlns="http://www.w3.org/2000/svg" width="25.058" height="25.058" viewBox="0 0 25.058 25.058">
  <g id="alarm" transform="translate(-0.007)">
    <g id="Group_47863" data-name="Group 47863" transform="translate(4.532 7.145)">
      <g id="Group_47862" data-name="Group 47862">
        <path id="Path_119607" data-name="Path 119607" d="M108.454,163.261l-1.227-3.622a.489.489,0,0,0-.464-.332h-.071v-7.1a6.215,6.215,0,1,0-12.431,0v7.1H94.19a.489.489,0,0,0-.464.332L92.5,163.261a.489.489,0,0,0,.464.646h15.028a.489.489,0,0,0,.464-.646ZM95.24,152.21a5.237,5.237,0,0,1,10.473,0v7.1H95.24Zm-1.595,10.719.9-2.643h11.871l.9,2.643Z" transform="translate(-92.474 -145.995)" fill="#f49224"/>
      </g>
    </g>
    <g id="Group_47865" data-name="Group 47865" transform="translate(12.046)">
      <g id="Group_47864" data-name="Group 47864">
        <path id="Path_119608" data-name="Path 119608" d="M246.489,0A.489.489,0,0,0,246,.489V5.225a.489.489,0,0,0,.979,0V.489A.489.489,0,0,0,246.489,0Z" transform="translate(-246 0)" fill="#f49224"/>
      </g>
    </g>
    <g id="Group_47867" data-name="Group 47867" transform="translate(12.046 4.843)">
      <g id="Group_47866" data-name="Group 47866">
        <path id="Path_119609" data-name="Path 119609" d="M246.835,99.107a.49.49,0,1,0,.143.347A.492.492,0,0,0,246.835,99.107Z" transform="translate(-246 -98.964)" fill="#f49224"/>
      </g>
    </g>
    <g id="Group_47869" data-name="Group 47869" transform="translate(0.029 13.1)">
      <g id="Group_47868" data-name="Group 47868">
        <path id="Path_119610" data-name="Path 119610" d="M41.792,267.66H37.629a.489.489,0,0,0,0,.979h4.163a.489.489,0,1,0,0-.979Z" transform="translate(-37.14 -267.66)" fill="#f49224"/>
      </g>
    </g>
    <g id="Group_47871" data-name="Group 47871" transform="translate(0.007 13.1)">
      <g id="Group_47870" data-name="Group 47870">
        <path id="Path_119611" data-name="Path 119611" d="M.842,267.8a.489.489,0,0,0-.692,0,.489.489,0,0,0,.346.835.489.489,0,0,0,.346-.835Z" transform="translate(-0.007 -267.66)" fill="#f49224"/>
      </g>
    </g>
    <g id="Group_47873" data-name="Group 47873" transform="translate(7.636 2.452)">
      <g id="Group_47872" data-name="Group 47872">
        <path id="Path_119612" data-name="Path 119612" d="M157.482,52l-.663-1.6a.489.489,0,0,0-.9.375l.663,1.6a.489.489,0,0,0,.9-.375Z" transform="translate(-155.877 -50.093)" fill="#f49224"/>
      </g>
    </g>
    <g id="Group_47875" data-name="Group 47875" transform="translate(1.398 8.689)">
      <g id="Group_47874" data-name="Group 47874">
        <path id="Path_119613" data-name="Path 119613" d="M30.709,178.24l-1.6-.663a.489.489,0,0,0-.375.9l1.6.663a.489.489,0,0,0,.375-.9Z" transform="translate(-28.43 -177.54)" fill="#f49224"/>
      </g>
    </g>
    <g id="Group_47877" data-name="Group 47877" transform="translate(20.105 13.1)">
      <g id="Group_47876" data-name="Group 47876">
        <path id="Path_119614" data-name="Path 119614" d="M415.1,267.66h-3.947a.489.489,0,1,0,0,.979H415.1a.489.489,0,1,0,0-.979Z" transform="translate(-410.662 -267.66)" fill="#f49224"/>
      </g>
    </g>
    <g id="Group_47879" data-name="Group 47879" transform="translate(24.086 13.1)">
      <g id="Group_47878" data-name="Group 47878">
        <path id="Path_119615" data-name="Path 119615" d="M492.828,267.8a.489.489,0,1,0,.143.346A.493.493,0,0,0,492.828,267.8Z" transform="translate(-491.993 -267.66)" fill="#f49224"/>
      </g>
    </g>
    <g id="Group_47881" data-name="Group 47881" transform="translate(18.97 3.768)">
      <g id="Group_47880" data-name="Group 47880">
        <path id="Path_119616" data-name="Path 119616" d="M390.717,77.124a.49.49,0,0,0-.692,0l-2.408,2.408a.489.489,0,0,0,.692.692l2.408-2.408A.49.49,0,0,0,390.717,77.124Z" transform="translate(-387.473 -76.981)" fill="#f49224"/>
      </g>
    </g>
    <g id="Group_47883" data-name="Group 47883" transform="translate(2.714 3.768)">
      <g id="Group_47882" data-name="Group 47882">
        <path id="Path_119617" data-name="Path 119617" d="M58.565,79.534l-2.408-2.408a.489.489,0,1,0-.692.692l2.408,2.408a.489.489,0,0,0,.692-.692Z" transform="translate(-55.321 -76.983)" fill="#f49224"/>
      </g>
    </g>
    <g id="Group_47885" data-name="Group 47885" transform="translate(15.793 2.452)">
      <g id="Group_47884" data-name="Group 47884">
        <path id="Path_119618" data-name="Path 119618" d="M323.9,50.131a.49.49,0,0,0-.639.265L322.6,52a.489.489,0,1,0,.9.375l.663-1.6A.489.489,0,0,0,323.9,50.131Z" transform="translate(-322.561 -50.094)" fill="#f49224"/>
      </g>
    </g>
    <g id="Group_47887" data-name="Group 47887" transform="translate(21.093 8.689)">
      <g id="Group_47886" data-name="Group 47886">
        <path id="Path_119619" data-name="Path 119619" d="M433.385,177.841a.49.49,0,0,0-.639-.265l-1.6.663a.489.489,0,1,0,.375.9l1.6-.663A.489.489,0,0,0,433.385,177.841Z" transform="translate(-430.842 -177.539)" fill="#f49224"/>
      </g>
    </g>
    <g id="Group_47889" data-name="Group 47889" transform="translate(11.068 10.229)">
      <g id="Group_47888" data-name="Group 47888">
        <path id="Path_119620" data-name="Path 119620" d="M227.469,209.008A1.47,1.47,0,0,0,226,210.476v2.349a1.468,1.468,0,1,0,2.936,0v-2.349A1.47,1.47,0,0,0,227.469,209.008Zm.489,3.817a.489.489,0,0,1-.979,0v-2.349a.489.489,0,0,1,.979,0Z" transform="translate(-226.001 -209.008)" fill="#f49224"/>
      </g>
    </g>
    <g id="Group_47891" data-name="Group 47891" transform="translate(11.068 16.494)">
      <g id="Group_47890" data-name="Group 47890">
        <path id="Path_119621" data-name="Path 119621" d="M227.469,337.005a1.468,1.468,0,1,0,1.468,1.468A1.47,1.47,0,0,0,227.469,337.005Zm0,1.958a.489.489,0,1,1,.489-.489A.49.49,0,0,1,227.469,338.963Z" transform="translate(-226.001 -337.005)" fill="#f49224"/>
      </g>
    </g>
  </g>
</svg>
