<svg xmlns="http://www.w3.org/2000/svg" width="28.147" height="28.138" viewBox="0 0 28.147 28.138">
  <g id="VyBQys.tif" transform="translate(-196.913 -121.982)">
    <g id="Group_47860" data-name="Group 47860" transform="translate(196.913 121.982)">
      <path id="Path_119584" data-name="Path 119584" d="M244.982,143.515c-.342-.158-.658-.3-.97-.45-.378-.184-.487-.172-.776.116-.168.167-.331.338-.5.5a.465.465,0,0,1-.724.011q-1.581-1.568-3.15-3.148a.446.446,0,0,1,.014-.7c.182-.192.37-.378.561-.562a.512.512,0,0,0,.115-.641q-.384-.881-.736-1.776a.494.494,0,0,0-.511-.359c-.274,0-.549.005-.822,0a.451.451,0,0,1-.494-.5q-.006-2.226,0-4.453a.45.45,0,0,1,.495-.494c.283-.007.567,0,.851,0a.473.473,0,0,0,.472-.335q.371-.918.759-1.828a.488.488,0,0,0-.11-.593c-.188-.186-.377-.372-.561-.562a.458.458,0,0,1-.01-.74q1.549-1.559,3.108-3.109a.466.466,0,0,1,.761.012q.275.266.542.541a.5.5,0,0,0,.617.112q.9-.387,1.8-.748a.484.484,0,0,0,.347-.492c0-.274,0-.548,0-.822a.456.456,0,0,1,.51-.508q2.212-.006,4.425,0a.457.457,0,0,1,.508.51c.007.274,0,.548,0,.823a.483.483,0,0,0,.347.491q.907.361,1.8.747a.5.5,0,0,0,.617-.113c.185-.189.37-.378.562-.561a.466.466,0,0,1,.725-.008q1.57,1.558,3.128,3.129a.454.454,0,0,1,0,.721c-.182.192-.37.379-.561.562a.508.508,0,0,0-.111.64c.254.578.5,1.161.726,1.75a.519.519,0,0,0,.554.384c.255-.008.511,0,.766,0,.339.007.517.17.518.5q.006,2.227,0,4.453a.451.451,0,0,1-.5.49q-.4.01-.794,0a.507.507,0,0,0-.535.368c-.234.6-.481,1.189-.737,1.776a.5.5,0,0,0,.1.618c.2.192.392.383.58.583a.446.446,0,0,1,0,.7q-1.568,1.581-3.149,3.149a.452.452,0,0,1-.72-.017c-.184-.177-.366-.356-.541-.542a.518.518,0,0,0-.69-.1c-.324.167-.659.314-1.017.483l-.332-.845c.405-.192.779-.395,1.173-.548a1.273,1.273,0,0,1,1.374.252,3.822,3.822,0,0,1,.339.378l2.63-2.63a2.347,2.347,0,0,1-.292-.221,1.365,1.365,0,0,1-.281-1.66q.369-.81.685-1.644a1.391,1.391,0,0,1,1.414-1h.359v-3.63c-.159,0-.316,0-.474,0a1.379,1.379,0,0,1-1.261-.9q-.366-.919-.756-1.829a1.336,1.336,0,0,1,.255-1.52,3.186,3.186,0,0,1,.364-.287l-2.668-2.663a2.215,2.215,0,0,1-.258.366,1.336,1.336,0,0,1-1.543.261q-.894-.389-1.8-.746a1.369,1.369,0,0,1-.912-1.305c0-.14,0-.28,0-.438h-3.631c0,.148,0,.3,0,.459a1.384,1.384,0,0,1-.907,1.283q-.906.36-1.8.747a1.346,1.346,0,0,1-1.545-.257,4.008,4.008,0,0,1-.273-.315l-2.638,2.643a2.036,2.036,0,0,1,.356.267,1.311,1.311,0,0,1,.25,1.5c-.256.608-.514,1.216-.757,1.829a1.383,1.383,0,0,1-1.283.907c-.149,0-.3,0-.461,0V135.6c.155,0,.312,0,.468,0a1.369,1.369,0,0,1,1.268.885c.25.621.508,1.238.765,1.856a1.313,1.313,0,0,1-.251,1.5,3.1,3.1,0,0,1-.349.292l2.64,2.641a2.858,2.858,0,0,1,.315-.389,1.247,1.247,0,0,1,1.344-.261c.4.153.788.358,1.2.551Z" transform="translate(-234.71 -121.982)" fill="#f49224"/>
      <path id="Path_119585" data-name="Path 119585" d="M312.473,201.6l-.362-.794a7.241,7.241,0,0,0,4.03-4.807,7.038,7.038,0,0,0-.3-4.556,7.265,7.265,0,1,0-9.723,9.367l-.355.787A8.153,8.153,0,0,1,308.971,186a8.155,8.155,0,0,1,3.5,15.592Z" transform="translate(-295.043 -182.371)" fill="#f49224"/>
      <path id="Path_119586" data-name="Path 119586" d="M363.177,236.5a1.886,1.886,0,0,1-2.265.009c-1.455.98-2.935-.07-3.222-1.667a7.7,7.7,0,0,1,0-1.32.691.691,0,0,0-.043-.316,4.915,4.915,0,0,1,3.781-7.171,5,5,0,0,1,5.6,5.046,4.869,4.869,0,0,1-.54,2.037.826.826,0,0,0-.075.47,3.227,3.227,0,0,1-.371,2.215A1.915,1.915,0,0,1,363.177,236.5Zm2.948-5.463a4.076,4.076,0,0,0-4.742-4.082,3.968,3.968,0,0,0-2.868,5.919.864.864,0,0,1,.1.747,2.106,2.106,0,0,0,.259,1.794.977.977,0,0,0,1.662.182.467.467,0,0,1,.759.015.943.943,0,0,0,1.5,0,.456.456,0,0,1,.754-.022.977.977,0,0,0,1.662-.17,2.128,2.128,0,0,0,.251-1.847.748.748,0,0,1,.093-.667A3.727,3.727,0,0,0,366.126,231.037Z" transform="translate(-347.969 -220.097)" fill="#f49224"/>
      <path id="Path_119587" data-name="Path 119587" d="M364.035,454.42a10,10,0,0,1,1.064.072,2.183,2.183,0,0,1,1.834,1.995c.055.876.017,1.757.02,2.636,0,.093,0,.185,0,.295h-.908c0-.09,0-.189,0-.287,0-.775,0-1.55,0-2.325a1.36,1.36,0,0,0-1.453-1.455q-2.637,0-5.273,0a1.361,1.361,0,0,0-1.44,1.44c0,.868,0,1.737,0,2.625h-.908c0-.651-.005-1.3,0-1.949a7.671,7.671,0,0,1,.053-1.186,2.225,2.225,0,0,1,2.146-1.836c.233-.007.467,0,.754,0a2.762,2.762,0,0,1-.619-2.418,2.657,2.657,0,0,1,1-1.567,2.719,2.719,0,0,1,3.491.152C364.862,451.587,364.952,452.959,364.035,454.42Zm-.26-1.788a1.814,1.814,0,1,0-1.828,1.81A1.815,1.815,0,0,0,363.775,452.632Z" transform="translate(-347.887 -431.297)" fill="#f49224"/>
      <path id="Path_119588" data-name="Path 119588" d="M568.161,507.177a5.575,5.575,0,0,1,.012-.858.789.789,0,0,1,.266-.45c.166-.133.36-.042.514.09q1.539,1.318,3.076,2.638a.462.462,0,0,1,0,.791q-1.524,1.314-3.056,2.619a.468.468,0,0,1-.544.114.474.474,0,0,1-.267-.488c0-.263,0-.526,0-.827h-.317c-.765,0-1.531,0-2.3,0-.4,0-.562-.164-.563-.571q0-1.247,0-2.494c0-.407.159-.564.567-.565C566.41,507.176,567.268,507.177,568.161,507.177Zm-2.269,2.723h2.43c.644,0,.726.08.753.727,0,.013.02.026.046.058l1.973-1.694-2.01-1.718c-.008.094-.013.13-.014.166-.013.526-.135.648-.658.648h-2.521V509.9Z" transform="translate(-544.104 -484.031)" fill="#f49224"/>
      <path id="Path_119589" data-name="Path 119589" d="M201,507.364c.892,0,1.742,0,2.591,0,.427,0,.584.155.585.577q0,1.233,0,2.466c0,.438-.155.588-.6.588-.848,0-1.7,0-2.575,0,0,.293,0,.564,0,.835a.469.469,0,0,1-.276.483.457.457,0,0,1-.521-.106q-1.538-1.319-3.076-2.639a.456.456,0,0,1-.008-.771q1.534-1.324,3.076-2.639a.463.463,0,0,1,.545-.107.479.479,0,0,1,.261.492C201,506.807,201,507.069,201,507.364Zm-.924,3.536c.009-.087.015-.122.016-.158.015-.545.128-.655.678-.655h2.477v-1.814h-2.4c-.649,0-.734-.082-.757-.723,0-.014-.017-.028-.043-.066l-1.976,1.7Z" transform="translate(-196.913 -484.218)" fill="#f49224"/>
      <path id="Path_119590" data-name="Path 119590" d="M390.122,573.093h-.875v-2.687h.875Z" transform="translate(-378.336 -544.968)" fill="#f49224"/>
      <path id="Path_119591" data-name="Path 119591" d="M485.228,573.069v-2.684h.877v2.684Z" transform="translate(-468.872 -544.948)" fill="#f49224"/>
      <path id="Path_119592" data-name="Path 119592" d="M454.387,290.034a1.361,1.361,0,1,1-1.367,1.368A1.367,1.367,0,0,1,454.387,290.034Zm-.012.908a.452.452,0,1,0,.456.44A.456.456,0,0,0,454.376,290.941Z" transform="translate(-438.492 -280.5)" fill="#f49224"/>
      <path id="Path_119593" data-name="Path 119593" d="M390.386,290.034a1.36,1.36,0,1,1-1.366,1.369A1.36,1.36,0,0,1,390.386,290.034Zm.445,1.349a.45.45,0,1,0-.438.462A.456.456,0,0,0,390.831,291.383Z" transform="translate(-378.122 -280.501)" fill="#f49224"/>
    </g>
  </g>
</svg>
