<svg id="photo-camera" xmlns="http://www.w3.org/2000/svg" width="17.374" height="15.678" viewBox="0 0 17.374 15.678">
  <g id="Group_38278" data-name="Group 38278" transform="translate(0 0)">
    <g id="Group_38277" data-name="Group 38277">
      <path id="Path_50088" data-name="Path 50088" d="M135.242,157a4.242,4.242,0,1,0,4.242,4.242A4.247,4.247,0,0,0,135.242,157Zm0,7.126a2.884,2.884,0,1,1,2.884-2.884A2.888,2.888,0,0,1,135.242,164.126Z" transform="translate(-126.49 -152.521)" fill="#fff"/>
      <path id="Path_50089" data-name="Path 50089" d="M15.338,27.443h-2.5a.21.21,0,0,1-.187-.113l-.691-1.451-.006-.012a1.56,1.56,0,0,0-1.4-.867H6.867a1.56,1.56,0,0,0-1.4.867l-.006.012L4.768,27.33a.21.21,0,0,1-.187.113H2.036A2.038,2.038,0,0,0,0,29.479v9.162a2.038,2.038,0,0,0,2.036,2.036h13.3a2.038,2.038,0,0,0,2.036-2.036V29.479A2.038,2.038,0,0,0,15.338,27.443Zm.679,11.2a.679.679,0,0,1-.679.679H2.036a.679.679,0,0,1-.679-.679V29.479a.679.679,0,0,1,.679-.679H4.581a1.56,1.56,0,0,0,1.4-.867l.006-.012.691-1.452a.21.21,0,0,1,.187-.113h3.688a.21.21,0,0,1,.187.113l.691,1.452.006.012a1.56,1.56,0,0,0,1.4.867h2.5a.679.679,0,0,1,.679.679Z" transform="translate(0 -25)" fill="#fff"/>
    </g>
  </g>
</svg>
