<svg xmlns="http://www.w3.org/2000/svg" width="15.146" height="20.5" viewBox="0 0 15.146 20.5">
  <g id="pin" transform="translate(-48.08)">
    <g id="Group_47905" data-name="Group 47905" transform="translate(48.08)">
      <g id="Group_47904" data-name="Group 47904" transform="translate(0)">
        <path id="Path_119676" data-name="Path 119676" d="M55.653,0A7.581,7.581,0,0,0,48.08,7.573a8.737,8.737,0,0,0,.642,2.916,12.212,12.212,0,0,0,.875,1.637l5.192,7.867a.988.988,0,0,0,1.726,0l5.193-7.868a12.164,12.164,0,0,0,.875-1.637,8.735,8.735,0,0,0,.642-2.916A7.581,7.581,0,0,0,55.653,0Zm6.109,10.143a11.189,11.189,0,0,1-.8,1.492L55.772,19.5c-.1.155-.135.155-.237,0l-5.193-7.868a11.194,11.194,0,0,1-.8-1.493,7.931,7.931,0,0,1-.573-2.569,6.682,6.682,0,1,1,13.364,0A7.937,7.937,0,0,1,61.762,10.143Z" transform="translate(-48.08)" fill="#fff"/>
        <path id="Path_119677" data-name="Path 119677" d="M116.089,64.008a4.009,4.009,0,1,0,4.009,4.009A4.014,4.014,0,0,0,116.089,64.008Zm0,7.127a3.118,3.118,0,1,1,3.118-3.118A3.122,3.122,0,0,1,116.089,71.135Z" transform="translate(-108.516 -60.444)" fill="#fff"/>
      </g>
    </g>
  </g>
</svg>
