<svg xmlns="http://www.w3.org/2000/svg" viewBox="0 0 32 32" width="32" height="32">
	<style>
		tspan { white-space:pre }
		.shp0 { fill: #063a6f } 
		.shp1 { fill: none;stroke: #063a6f;stroke-width: 2 } 
		.shp2 { fill: #ebebeb } 
		.shp3 { fill: #951a1d } 
		.shp4 { fill: #24492a } 
	</style>
	<g id="1- Login Page">
		<g id="Group 446">
			<g id="Group 445">
				<path id="Path 92" fill-rule="evenodd" class="shp0" d="M13.26 4.88C20.59 4.88 26.53 10.82 26.53 18.15C26.53 25.48 20.59 31.42 13.26 31.42C5.94 31.42 0 25.48 0 18.15C0 10.82 5.94 4.88 13.26 4.88ZM13.26 6.88C10.26 6.88 7.43 8.06 5.3 10.18C3.17 12.31 2 15.14 2 18.15C2 21.16 3.17 23.99 5.3 26.12C7.43 28.24 10.26 29.42 13.26 29.42C16.27 29.42 19.1 28.24 21.23 26.12C23.36 23.99 24.53 21.16 24.53 18.15C24.53 15.14 23.36 12.31 21.23 10.18C19.1 8.06 16.27 6.88 13.26 6.88Z" />
				<path id="Path 93" class="shp1" d="M13.49 10.57C13.98 10.57 14.47 10.62 14.95 10.72C15.44 10.81 15.9 10.96 16.36 11.15C16.82 11.33 17.25 11.57 17.66 11.84C18.07 12.11 18.45 12.42 18.8 12.77C19.15 13.12 19.46 13.5 19.73 13.91C20.01 14.32 20.24 14.75 20.43 15.21C20.61 15.67 20.76 16.14 20.85 16.62C20.95 17.1 21 17.59 21 18.08C21 18.58 20.95 19.07 20.85 19.55C20.76 20.03 20.61 20.5 20.43 20.96C20.24 21.41 20.01 21.85 19.73 22.26C19.46 22.67 19.15 23.05 18.8 23.39C18.45 23.74 18.07 24.05 17.66 24.33C17.25 24.6 16.82 24.83 16.36 25.02C15.9 25.21 15.44 25.35 14.95 25.45C14.47 25.55 13.98 25.59 13.49 25.59C12.99 25.59 12.51 25.55 12.02 25.45C11.54 25.35 11.07 25.21 10.61 25.02C10.16 24.83 9.73 24.6 9.31 24.33C8.91 24.05 8.53 23.74 8.18 23.39C7.83 23.05 7.52 22.67 7.24 22.26C6.97 21.85 6.74 21.41 6.55 20.96C6.36 20.5 6.22 20.03 6.12 19.55C6.03 19.07 5.98 18.58 5.98 18.08C5.98 17.59 6.03 17.1 6.12 16.62C6.22 16.14 6.36 15.67 6.55 15.21C6.74 14.75 6.97 14.32 7.24 13.91C7.52 13.5 7.83 13.12 8.18 12.77C8.53 12.42 8.91 12.11 9.31 11.84C9.73 11.57 10.16 11.33 10.61 11.15C11.07 10.96 11.54 10.81 12.02 10.72C12.51 10.62 12.99 10.57 13.49 10.57Z" />
				<path id="Ellipse 17" class="shp2" d="M19.34 22.34C14.34 22.34 10.3 17.35 10.3 11.17C10.3 4.99 14.34 0 19.34 0C24.34 0 28.38 4.99 28.38 11.17C28.38 17.35 24.34 22.34 19.34 22.34Z" />
				<path id="Path 94" class="shp0" d="M29.07 5.76L29.92 8.74L21.36 17.45L20.55 14.62L29.07 5.76Z" />
				<path id="Path 95" class="shp3" d="M25.36 0.42L26.58 4.68L14.33 17.14L13.17 13.09L25.36 0.42Z" />
				<path id="Path 96" class="shp4" d="M29.93 0.51L31.16 4.78L18.91 17.24L17.75 13.18L29.93 0.51Z" />
			</g>
		</g>
	</g>
</svg>